<svg id="svg" version="1.1" xmlns="http://www.w3.org/2000/svg" style="display: block;" viewBox="0 0 947 757"><path d="M0 0 C312.51 0 625.02 0 947 0 C947 249.81 947 499.62 947 757 C634.49 757 321.98 757 0 757 C0 507.19 0 257.38 0 0 Z " transform="translate(0,0)" style="fill: #43B08D;"/><path d="M0 0 C1.45362442 0.00472824 1.45362442 0.00472824 2.93661499 0.009552 C45.85246965 0.21329505 88.40381537 8.13777591 129.64453125 19.859375 C133.46495538 20.9324527 137.29646285 21.95337703 141.13671875 22.953125 C167.08886166 29.72213505 192.7885421 37.3712888 218.4296875 45.23046875 C219.16741898 45.45642227 219.90515045 45.68237579 220.66523743 45.91517639 C221.3855162 46.13580246 222.10579498 46.35642853 222.84790039 46.58374023 C223.55044952 46.79892303 224.25299866 47.01410583 224.97683716 47.23580933 C226.35840595 47.65921711 227.73981692 48.08314028 229.12106323 48.50759888 C236.61223817 50.80557983 244.08874755 52.96364012 251.75 54.625 C260.09893522 56.45832289 268.68155503 59.11905503 274.875 65.3125 C276.53083835 68.10825159 277.12517855 70.15270151 277.126849 73.38918239 C277.13211226 74.19847523 277.13737552 75.00776808 277.14279827 75.84158495 C277.13840179 76.72682698 277.13400531 77.612069 277.12947559 78.52413654 C277.13268207 79.47143561 277.13588855 80.41873468 277.13919219 81.39473978 C277.147544 84.59332388 277.14154977 87.79172324 277.13569641 90.99031067 C277.13871477 93.29708677 277.14260265 95.60386186 277.14728898 97.91063517 C277.15761916 104.26893858 277.15537439 110.62718591 277.15110838 116.98549402 C277.14793128 123.13284727 277.15604256 129.28019102 277.16286864 135.42753961 C277.17813034 149.56107308 277.17981127 163.69458868 277.17734561 177.82812867 C277.17551403 188.74610031 277.17726973 199.66406607 277.18157005 210.58203697 C277.18217245 212.14981965 277.18277365 213.71760233 277.18337366 215.28538501 C277.18428091 217.64786584 277.18518957 220.01034668 277.18610601 222.37282751 C277.19453963 244.34848334 277.19886865 266.32413697 277.19469929 288.2997942 C277.19454291 289.12873646 277.19438654 289.95767873 277.19422542 290.81174045 C277.19341963 295.01324186 277.19257386 299.21474326 277.19171212 303.41624466 C277.19145549 304.66790741 277.19145549 304.66790741 277.19119367 305.94485628 C277.19084701 307.63230481 277.19049849 309.31975333 277.19014808 311.00720186 C277.18479505 337.24333993 277.19270772 363.47944437 277.21118164 389.71557617 C277.23191085 419.18917719 277.24262219 448.66275736 277.23860615 478.13636607 C277.23821081 481.28124058 277.23784927 484.42611509 277.23750877 487.57098961 C277.23741804 488.34533968 277.23732731 489.11968975 277.23723383 489.91750498 C277.2360689 501.59631125 277.24270854 513.27509646 277.25332069 524.95389748 C277.26538619 538.24570852 277.26691653 551.53747325 277.25453053 564.829285 C277.24849448 571.60977186 277.24754404 578.39016285 277.25953293 585.17064476 C277.2703897 591.38319772 277.2672905 597.59558468 277.25327124 603.80812987 C277.25062368 606.05052337 277.25299267 608.29292987 277.26100711 610.5353106 C277.36616129 642.1631847 277.36616129 642.1631847 269.875 652.3125 C265.44269302 654.52865349 259.55689277 652.79168299 254.99127197 651.49090576 C251.82735577 650.41244362 248.69816938 649.26489115 245.5703125 648.0859375 C244.41111298 647.66003326 243.25191345 647.23412903 242.05758667 646.7953186 C238.36755472 645.43703622 234.68370191 644.0628454 231 642.6875 C227.36209099 641.34132834 223.72296537 639.99848386 220.08377075 638.65579224 C217.70932162 637.77940395 215.33535456 636.90170839 212.96188354 636.02267456 C202.97508578 632.32908847 192.94403816 628.77491182 182.875 625.3125 C182.1335524 625.05693832 181.3921048 624.80137665 180.62818909 624.53807068 C113.85996319 601.55762116 38.89151595 583.69289289 -31.125 602.3125 C-31.90085449 602.51713867 -32.67670898 602.72177734 -33.47607422 602.93261719 C-54.6418731 608.63192065 -73.9988445 617.26143947 -93.00048828 628.12670898 C-97.57634011 630.68070948 -100.3478371 631.90639843 -105.62109375 631.16796875 C-114.03121277 628.29462075 -119.8920536 619.73684763 -124.125 612.3125 C-124.50269531 611.67828125 -124.88039063 611.0440625 -125.26953125 610.390625 C-130.25510454 601.35310637 -131.56803741 591.31347077 -131.61021423 581.14134216 C-131.62611276 580.08153975 -131.64201129 579.02173734 -131.65839159 577.9298197 C-131.70773965 574.40042329 -131.7366331 570.87117253 -131.76538086 567.34155273 C-131.79663714 564.77656628 -131.82907302 562.21159397 -131.86258602 559.64663601 C-131.94184829 553.38596184 -132.00530247 547.12522219 -132.06301517 540.86431603 C-132.11022588 535.77197496 -132.16321272 530.67972386 -132.22014236 525.58748245 C-132.45240087 504.7724486 -132.64898123 483.95719205 -132.83218122 463.14167333 C-132.87967127 457.7501436 -132.92797885 452.35862137 -132.97642326 446.96710014 C-133.11275502 431.78220665 -133.24834123 416.59730706 -133.38058567 401.41237736 C-133.38895338 400.45158802 -133.3973211 399.49079868 -133.40594238 398.50089451 C-133.42287451 396.55631126 -133.43980591 394.61172799 -133.45673657 392.66714472 C-133.46513216 391.7029562 -133.47352774 390.73876768 -133.48217773 389.74536133 C-133.49058408 388.77986886 -133.49899042 387.81437638 -133.5076515 386.81962656 C-133.63369025 372.35961082 -133.76443081 357.89964349 -133.89819336 343.43969727 C-134.35123533 294.38671951 -134.7585389 245.33365674 -135.07344723 196.27958185 C-135.10762047 190.96396062 -135.14279639 185.6483473 -135.17883553 180.33273839 C-135.31004805 160.95170095 -135.42396887 141.57079918 -135.48098963 122.18938512 C-135.48562041 120.62805658 -135.49027286 119.06672811 -135.49494743 117.5053997 C-135.4972347 116.740329 -135.49952196 115.97525829 -135.50187853 115.18700362 C-135.5190022 109.88245969 -135.54890734 104.57808545 -135.58474922 99.27363777 C-135.63187221 92.27889442 -135.65322848 85.28449803 -135.65618253 78.28959775 C-135.66119823 75.75785186 -135.67466158 73.22610589 -135.69736362 70.69445682 C-135.72675808 67.25648408 -135.72503768 63.81987416 -135.71543884 60.38182068 C-135.73116096 59.39730755 -135.74688307 58.41279443 -135.76308161 57.39844757 C-135.677841 48.58841091 -132.49413081 40.95666567 -126.1875 34.6875 C-104.16466984 14.04792198 -66.03808365 6.52388665 -37.125 2.3125 C-35.47310669 2.05907837 -35.47310669 2.05907837 -33.7878418 1.80053711 C-22.50766826 0.21133115 -11.38080483 -0.04914658 0 0 Z " transform="translate(638.125,35.6875)" style="fill: #43B08D;"/><path d="M0 0 C312.51 0 625.02 0 947 0 C947 249.81 947 499.62 947 757 C634.49 757 321.98 757 0 757 C0 507.19 0 257.38 0 0 Z M589 40 C587.99243652 40.20898926 586.98487305 40.41797852 585.94677734 40.63330078 C562.05633087 45.77496547 532.7707349 52.29536473 514 69 C513.37738281 69.53109375 512.75476563 70.0621875 512.11328125 70.609375 C506.22445405 75.99203466 502.90787224 82.10806312 502.50930882 90.16106319 C502.49346592 92.09258105 502.49938244 94.02435792 502.52308655 95.95579529 C502.52023039 97.03095207 502.51737424 98.10610886 502.51443154 99.21384615 C502.50995426 102.81790616 502.53435127 106.4211753 502.55883789 110.02514648 C502.56212496 112.63559125 502.56375272 115.24603854 502.56386375 117.85648537 C502.5676818 124.27919537 502.593855 130.70163815 502.62737252 137.12425439 C502.65467383 142.462152 502.6727416 147.80001543 502.68498421 153.13796806 C502.68676837 153.90883604 502.68855254 154.67970402 502.69039077 155.47393164 C502.69218357 156.24980795 502.69397637 157.02568427 502.69582349 157.82507199 C502.74680267 179.88366507 502.8647161 201.94178225 503 224 C503.00535306 224.87667285 503.01070613 225.75334569 503.0162214 226.65658438 C503.33322448 278.43171399 503.77423672 330.20567101 504.25319333 381.97952406 C504.38716864 396.46393504 504.51670889 410.94837981 504.64282227 425.43286133 C504.65121785 426.39704985 504.65961343 427.36123837 504.66826343 428.35464472 C504.67664877 429.3177488 504.68503411 430.28085287 504.69367355 431.27314192 C504.71058532 433.21538708 504.72749892 435.15763223 504.74441433 437.09987736 C504.75277041 438.05936165 504.76112649 439.01884595 504.76973578 440.00740552 C504.90168948 455.13954117 505.03731221 470.27164423 505.17327861 485.40374427 C505.22127668 490.75038334 505.26877282 496.09702656 505.31582933 501.443674 C505.49791382 522.11797 505.69822313 542.79194313 505.92934973 563.46575095 C505.98559466 568.55001272 506.03509144 573.63431388 506.08195877 578.71866989 C506.14526272 585.55925213 506.224071 592.3995097 506.31344426 599.23980033 C506.3437138 601.72381152 506.36922041 604.20788634 506.38945282 606.69199955 C506.41785303 610.07126671 506.46409606 613.44984603 506.51478577 616.82884216 C506.51878124 617.79246276 506.52277671 618.75608336 506.52689326 619.74890459 C506.82142707 635.27554841 512.16488796 648.51859675 522.75390625 659.84375 C527.16767422 664.08096725 530.32483558 666.88283266 536.515625 667.27734375 C541.62769781 666.70665638 545.6810483 663.61692695 550 661 C563.78273039 653.08686499 577.96946906 647.13081864 593 642 C594.17175781 641.59974609 594.17175781 641.59974609 595.3671875 641.19140625 C607.32128932 637.19951304 619.57016539 634.95654804 632 633 C632.71607422 632.87995605 633.43214844 632.75991211 634.16992188 632.63623047 C690.19657715 623.46699006 750.65524125 637.76870964 803.69955444 655.24276733 C805.3975098 655.80167961 807.09621115 656.35832678 808.7953186 656.91372681 C826.47468341 662.69893727 843.97767429 668.89807579 861.4375 675.3125 C865.05524027 676.63886733 868.67339746 677.96407395 872.29225159 679.28739929 C874.51133257 680.09911759 876.72976337 680.9126168 878.94737244 681.72834778 C881.96040715 682.8319326 884.9785156 683.91978051 888 685 C889.06219757 685.38465424 890.12439514 685.76930847 891.21878052 686.1656189 C892.26556976 686.5327298 893.31235901 686.8998407 894.39086914 687.27807617 C895.79122154 687.7747303 895.79122154 687.7747303 897.21986389 688.28141785 C900.28557813 689.07381342 902.84598662 689.23237989 906 689 C911.27534344 685.23189754 912.89008475 679.24923744 914.0692234 673.16877556 C915.63918287 663.29061314 915.28266316 653.27294058 915.26742554 643.29959106 C915.27116496 640.97949605 915.27576765 638.6594023 915.28115618 636.33931053 C915.29336431 629.98170899 915.29312832 623.62416016 915.29076743 617.26654959 C915.28942698 611.10897955 915.29938953 604.95142204 915.30799321 598.79385955 C915.32730119 584.65266341 915.33296011 570.5114818 915.33410732 556.37027402 C915.33502715 545.4538463 915.33914765 534.53742426 915.34550858 523.62099838 C915.34730368 520.47648967 915.34908331 517.33198095 915.35085833 514.18747222 C915.35130043 513.40571947 915.35174252 512.62396672 915.35219802 511.81852449 C915.36449927 489.84213193 915.37239981 467.86574133 915.37151146 445.88934517 C915.3714803 445.06140406 915.37144914 444.23346296 915.37141704 443.38043273 C915.37125083 439.18422628 915.37105275 434.98801984 915.37084763 430.79181339 C915.37080774 429.9584495 915.37076785 429.12508561 915.37072675 428.26646827 C915.37064587 426.58120866 915.37056228 424.89594905 915.37047596 423.21068945 C915.36924933 396.96660938 915.38428727 370.72258092 915.41162109 344.47851562 C915.44232466 314.98699638 915.45955484 285.49551104 915.45769465 256.0039748 C915.45754539 252.86135221 915.45744797 249.71872962 915.45738602 246.57610703 C915.45736271 245.80232215 915.4573394 245.02853727 915.45731538 244.23130437 C915.45725379 231.76964619 915.47003439 219.30803278 915.48725055 206.84638793 C915.5041816 194.33277077 915.50620053 181.81921928 915.4930319 169.30559702 C915.48628058 162.52411604 915.48646432 155.74280758 915.5037384 148.96133995 C915.51937602 142.75878706 915.51670124 136.55652717 915.49917014 130.35398184 C915.49607976 128.10525679 915.4998085 125.85651038 915.51089029 123.60781051 C915.52491952 120.56021859 915.51449714 117.5136676 915.49777794 114.46611214 C915.5077143 113.5852666 915.51765066 112.70442106 915.52788812 111.79688323 C915.46486946 106.39441365 914.63952059 103.25700166 911 99 C908.59583863 97.41234626 906.57236718 96.18687375 904 95 C902.97519531 94.51789063 901.95039062 94.03578125 900.89453125 93.5390625 C896.40105972 91.63422773 891.74364003 90.65184684 887 89.5625 C875.89545075 86.89909255 865.02309587 83.6456525 854.125 80.25 C852.4397871 79.72572151 850.75456571 79.20147035 849.06933594 78.67724609 C848.23168701 78.41663391 847.39403809 78.15602173 846.53100586 77.88751221 C845.6931958 77.62685974 844.85538574 77.36620728 843.9921875 77.09765625 C843.15437744 76.83684265 842.31656738 76.57602905 841.45336914 76.30731201 C820.73802771 69.86950554 799.93675362 63.84165572 778.90625 58.515625 C774.62076989 57.42789818 770.36346203 56.27282909 766.11572266 55.046875 C732.79627247 45.45013514 695.76069411 36.84156961 661 36 C660.25316956 35.98022095 659.50633911 35.96044189 658.73687744 35.94006348 C635.23777808 35.33768428 612.11641335 35.18177297 589 40 Z M129.84838867 77.02001953 C117.04923204 80.92869908 104.19309233 84.64712021 91.34634399 88.39561462 C89.6723334 88.88415844 87.99840253 89.37297551 86.32455444 89.86207581 C82.26084453 91.04943343 78.1961532 92.23314672 74.12915039 93.40917969 C72.6004092 93.85346754 71.07168136 94.29780132 69.54296875 94.7421875 C68.84998688 94.94127716 68.157005 95.14036682 67.44302368 95.3454895 C60.31227291 97.42453845 54.12089121 99.40657406 50 106 C49.15223844 108.73607314 48.87447972 111.19362549 48.8723495 114.0498836 C48.86933353 114.85318656 48.86631756 115.65648951 48.8632102 116.48413497 C48.86497967 117.36267377 48.86674914 118.24121256 48.86857224 119.14637375 C48.8665196 120.08661972 48.86446697 121.0268657 48.86235213 121.99560398 C48.85666361 125.17015765 48.85814167 128.34466818 48.85955811 131.51922607 C48.85697551 133.80878953 48.85396265 136.09835252 48.8505547 138.3879149 C48.84246864 144.69866653 48.84069423 151.00940681 48.83995724 157.32016301 C48.8387815 163.4216442 48.83198273 169.5231205 48.82587883 175.62459833 C48.80981064 191.97704652 48.80391402 208.32949379 48.79913008 224.68194846 C48.79679432 232.41969953 48.79319163 240.15744987 48.7894347 247.89520036 C48.77659667 274.38709147 48.76587912 300.87898216 48.7624321 327.37087631 C48.76221047 329.03430458 48.76198868 330.69773286 48.76176675 332.36116113 C48.76154611 334.02860182 48.76132562 335.6960425 48.7611053 337.36348319 C48.76066275 340.70863072 48.76021563 344.05377825 48.75976562 347.39892578 C48.75965623 348.22832947 48.75954684 349.05773316 48.75943414 349.9122703 C48.75580571 376.78922193 48.73989507 403.66614655 48.71657526 430.54308784 C48.69196096 458.96402984 48.67825845 487.38495642 48.67706418 515.8059094 C48.67689273 518.92805306 48.6766773 522.05019673 48.67642975 525.17234039 C48.67637398 525.94109044 48.67631821 526.70984049 48.67626075 527.50188599 C48.6751115 539.85786061 48.66409986 552.21380746 48.64954269 564.56977272 C48.63515248 576.9993931 48.63195488 589.42897803 48.63998267 601.85860446 C48.64403744 608.58858663 48.64297355 615.31846435 48.62892532 622.04844093 C48.6161691 628.21601571 48.61739925 634.38342756 48.62951604 640.55100217 C48.63147007 642.77591859 48.62840829 645.00084661 48.61967167 647.22574672 C48.17214329 670.02575757 48.17214329 670.02575757 56.25 690.875 C59.11487839 692.71670754 61.65350158 692.20451875 65 692 C67.73894396 691.20095837 70.29379289 690.35068143 72.94140625 689.32421875 C73.69296997 689.04345993 74.44453369 688.76270111 75.21887207 688.47343445 C76.83110436 687.8695086 78.44138249 687.26034454 80.04983521 686.64642334 C82.60350691 685.67185029 85.1621179 684.71142328 87.72241211 683.75439453 C92.02789694 682.14308054 96.32926515 680.52111249 100.62939453 678.89556885 C130.75288075 667.51549899 161.18463128 656.93663688 192.3359375 648.70410156 C194.84209469 648.04173377 197.34282393 647.36147779 199.84375 646.6796875 C272.26999482 627.33952542 349.61596793 627.46567996 416.3112793 664.98925781 C417.99932504 665.99959602 419.62375819 667.11376915 421.24609375 668.2265625 C424.83675967 670.53884949 426.79298687 670.59045798 431 670 C435.9612855 667.69043606 439.34056877 665.11686013 443 661 C443.556875 660.37351562 444.11375 659.74703125 444.6875 659.1015625 C454.02289435 647.95542356 457.25090091 634.95790699 457.37890625 620.71264648 C457.39553818 619.68007029 457.4121701 618.64749409 457.42930603 617.5836277 C457.48336135 614.03368383 457.52306069 610.4837284 457.5625 606.93359375 C457.58917038 604.97089686 457.61585823 603.00820011 457.6432972 601.04551381 C457.7871243 590.69727365 457.89524726 580.34869773 458 570 C458.00965538 569.05188603 458.01931076 568.10377207 458.02925873 567.12692738 C458.36017758 534.54764888 458.6373252 501.96791882 458.90625095 469.38807905 C459.03927795 453.27903539 459.17606758 437.17002363 459.312603 421.06100941 C459.33346464 418.5990073 459.35432468 416.13700518 459.37518311 413.67500305 C459.38550528 412.45702792 459.39582746 411.23905278 459.40646243 409.9841693 C459.46901511 402.59538676 459.53099922 395.20659968 459.59254622 387.81780869 C459.80639024 362.15419244 460.02945949 336.49071371 460.27636719 310.82739258 C460.74732623 261.75442569 461.20779857 212.68291896 461.2388196 163.60735911 C461.24373408 155.99956864 461.26214774 148.39194122 461.2898953 140.78420025 C461.31144394 134.65198421 461.32159143 128.5198157 461.32293582 122.38756222 C461.32396702 118.81688863 461.32953462 115.24638345 461.34775543 111.67575264 C461.36719165 107.81185094 461.36297728 103.94817814 461.35644531 100.08422852 C461.3656601 98.95440552 461.37487488 97.82458252 461.3843689 96.66052246 C461.33311351 87.03864393 458.75443388 80.01522283 452 73 C389.50027444 20.45598293 283.53263434 36.94781448 129.84838867 77.02001953 Z " transform="translate(0,0)" style="fill: #214D5D;"/><path d="M0 0 C312.51 0 625.02 0 947 0 C947 249.81 947 499.62 947 757 C634.49 757 321.98 757 0 757 C0 507.19 0 257.38 0 0 Z M514 44 C513.00355469 44.55042969 512.00710938 45.10085937 510.98046875 45.66796875 C499.5114863 52.42103394 488.0388576 63.09694729 484.35546875 76.3125 C484.00137736 78.37679565 484.00137736 78.37679565 484 81 C482.68 81 481.36 81 480 81 C479.79375 80.21625 479.5875 79.4325 479.375 78.625 C472.40141426 60.24009214 457.37148982 49.77000143 440.10205078 41.93652344 C439.06153564 41.47294434 439.06153564 41.47294434 438 41 C437.3385498 40.70383789 436.67709961 40.40767578 435.99560547 40.10253906 C422.55531462 34.21441164 408.41442124 30.54496414 394.24707031 26.84863281 C391.5841642 26.15267329 388.92828885 25.43671565 386.2734375 24.7109375 C374.71005811 21.6591819 362.89840667 20.52631221 351.02514648 19.32543945 C348.71117393 19.07650673 346.4016644 18.78575608 344.0949707 18.4765625 C299.87538201 12.90755476 252.50478863 23.26150884 209.84057617 34.04956055 C206.95867369 34.76275401 204.07548656 35.45626285 201.18481445 36.13208008 C188.93386945 38.99672067 176.79736326 42.15213757 164.6875 45.5625 C163.32375748 45.94443008 163.32375748 45.94443008 161.9324646 46.33407593 C144.06726269 51.33973702 126.29699532 56.64544381 108.54161072 62.02545166 C102.03911177 63.99378038 95.52411213 65.91699202 89 67.8125 C88.08049561 68.0808667 87.16099121 68.3492334 86.21362305 68.62573242 C81.33984761 70.0445358 76.45891883 71.43392517 71.5703125 72.80078125 C70.49265625 73.10588623 69.415 73.41099121 68.3046875 73.7253418 C66.26798105 74.30160587 64.22907977 74.87020157 62.1875 75.42895508 C50.67906225 78.70176724 40.14252317 83.62795735 33.1875 93.75 C26.75347512 105.54464873 27.57843482 118.1108416 27.6257782 131.15100098 C27.62303601 133.42384512 27.61898257 135.69668799 27.61373454 137.96952772 C27.60316161 144.20171191 27.61126792 150.43375237 27.62248504 156.66593027 C27.6304249 162.70148258 27.62425252 168.73701025 27.61850847 174.77256098 C27.6065944 187.87758677 27.61165841 200.98256438 27.62378674 214.0875875 C27.63433245 225.56115737 27.63886103 237.03471084 27.63749123 248.50828552 C27.6374072 249.27003544 27.63732317 250.03178536 27.63723659 250.8166186 C27.63688432 253.90907551 27.63650031 257.00153241 27.63607101 260.0939893 C27.63210685 289.09916615 27.64481791 318.10431405 27.66559757 347.10948261 C27.68395188 372.85001395 27.6897834 398.59051751 27.68432617 424.33105469 C27.68397974 425.98276069 27.68363364 427.63446669 27.68328788 429.28617269 C27.68311689 430.10276228 27.68294589 430.91935186 27.68276971 431.76068659 C27.6819161 435.87174078 27.68109232 439.98279498 27.68030071 444.09384918 C27.68014363 444.90498542 27.67998655 445.71612166 27.67982471 446.55183779 C27.67582856 468.08572696 27.68131878 489.61961348 27.689812 511.15350103 C27.690719 513.47266853 27.69162465 515.79183602 27.69252724 518.11100351 C27.69312835 519.64935455 27.69373697 521.18770558 27.69435314 522.72605661 C27.69856519 533.42606181 27.69915663 544.12606176 27.69724765 554.82606753 C27.69479787 568.6253382 27.69893022 582.42458074 27.71445765 596.22384375 C27.72176851 602.87320701 27.72579827 609.52254035 27.72121429 616.17190933 C27.71711347 622.26902192 27.72237229 628.36605489 27.73484037 634.46315545 C27.73774853 636.65897603 27.73736461 638.85480421 27.73319729 641.05062276 C26.92898571 674.83976996 26.92898571 674.83976996 41.14453125 704.29296875 C45.00295174 707.90823836 47.63116657 710.31944365 53 711 C52.484375 711.94875 51.96875 712.8975 51.4375 713.875 C50.963125 714.90625 50.48875 715.9375 50 717 C50.33 717.66 50.66 718.32 51 719 C51.76436957 718.57555812 52.52873914 718.15111623 53.31627142 717.71381247 C67.55548424 711.08203666 82.81823395 712.15642094 98.17330105 712.2415974 C102.46900656 712.25872895 106.76459634 712.24079647 111.0602957 712.22746909 C118.5780543 712.20893062 126.09554505 712.21254969 133.61330032 712.23093414 C144.79228479 712.25819668 155.97106455 712.25098245 167.15006406 712.23701694 C187.11651361 712.21318929 207.0828367 712.22331451 227.04927925 712.24757349 C244.51858711 712.26865388 261.98785191 712.27772343 279.45717239 712.27498245 C280.61637991 712.27481439 281.77558743 712.27464633 282.96992245 712.27447318 C287.67557086 712.27376868 292.38121925 712.27300065 297.08686762 712.27214202 C341.21403033 712.26421473 385.34111687 712.28963608 429.46825779 712.33119515 C468.67628611 712.36794772 507.88424146 712.37955577 547.09228516 712.36865234 C549.61071413 712.36795948 552.12914311 712.36726728 554.64757209 712.36657576 C555.89263493 712.36623377 557.13769777 712.36589178 558.42048978 712.36553943 C564.68792119 712.36383235 570.95535261 712.36218478 577.22278404 712.36060143 C578.45924463 712.36028726 579.69570521 712.3599731 580.9696343 712.35964942 C613.73316796 712.35167165 646.49669458 712.362617 679.26022398 712.37962401 C682.78493631 712.38143809 686.30964863 712.38324939 689.83436096 712.38505447 C692.17255397 712.38625669 694.51074698 712.38747393 696.84893998 712.38870629 C713.15445725 712.39715149 729.45996072 712.39830456 745.76547948 712.3944953 C766.7728452 712.38961206 787.78013695 712.39773195 808.78748243 712.42891531 C819.89886868 712.44502853 831.01013174 712.45020946 842.12152537 712.43963059 C849.54027921 712.43368372 856.95892401 712.44225738 864.37765177 712.46272775 C868.60647945 712.47399699 872.83505562 712.47896676 877.06388538 712.46639459 C880.91265076 712.45509009 884.76092808 712.46224824 888.60964461 712.48399214 C890.6422481 712.49076681 892.67488824 712.47800908 894.70745748 712.46440345 C901.58698103 712.52378262 906.89677474 713.20805771 913.11897764 716.24054907 C913.73971502 716.49116787 914.3604524 716.74178668 915 717 C915.66 716.67 916.32 716.34 917 716 C915.68 714.02 914.36 712.04 913 710 C913.92619141 709.50693359 913.92619141 709.50693359 914.87109375 709.00390625 C927.21702623 702.06988938 934.46188934 693.32945502 939.05855817 679.9095571 C940.30580911 675.43223137 940.27772884 671.07589988 940.25447559 666.45489883 C940.25768207 665.50800497 940.26088855 664.5611111 940.26419219 663.58552349 C940.2725064 660.4064211 940.26656284 657.22750641 940.26069641 654.04840088 C940.26371645 651.74855924 940.26760518 649.44871861 940.27228898 647.14887977 C940.28259688 640.82383654 940.28038003 634.49884982 940.27610838 628.1738019 C940.2729257 622.05451564 940.28104747 615.93523883 940.28786864 609.81595725 C940.3031134 595.75308915 940.30481318 581.69023905 940.30234561 567.62736443 C940.30051317 556.76711515 940.30227154 545.90687177 940.30657005 535.04662323 C940.30717245 533.48649476 940.30777365 531.92636628 940.30837366 530.3662378 C940.30928091 528.0152756 940.31018957 525.66431339 940.31110601 523.31335119 C940.31953645 501.45307293 940.32387065 479.5927969 940.31969929 457.73251724 C940.31954291 456.90832073 940.31938654 456.08412422 940.31922542 455.23495206 C940.31841964 451.05758093 940.31757386 446.88020981 940.31671212 442.70283869 C940.31654103 441.87319791 940.31636994 441.04355712 940.31619367 440.18877571 C940.31584702 438.51103971 940.31549849 436.83330371 940.31514808 435.15556772 C940.30979154 409.05324272 940.31771902 382.95095151 940.33618164 356.84863281 C940.35690013 327.52264083 940.36762457 298.19666979 940.36360615 268.87067008 C940.36321081 265.74332667 940.36284926 262.61598325 940.36250877 259.48863983 C940.36241804 258.71860902 940.36232731 257.94857821 940.36223383 257.15521313 C940.36106806 245.53293286 940.36771466 233.91067373 940.37832069 222.28839874 C940.39037222 209.06864363 940.39193227 195.84893507 940.37953053 182.62917927 C940.37348548 175.8835965 940.37256794 169.1381102 940.38453293 162.39253235 C940.39536005 156.21669958 940.39232599 150.04103415 940.37827124 143.86520931 C940.37561557 141.63172491 940.37801806 139.39822754 940.38600711 137.16475585 C940.5788544 121.81908598 940.5788544 121.81908598 937 107 C936.68417969 105.88367188 936.36835937 104.76734375 936.04296875 103.6171875 C932.62429121 92.65868688 927.3882947 83.99990446 917.12109375 78.44140625 C907.24446203 73.67542632 897.08643593 70.73027184 886.4609375 68.1484375 C878.86854962 66.2728661 871.40606527 64.07145002 863.9375 61.75 C814.61238261 46.55436806 814.61238261 46.55436806 764.66040039 33.63061523 C761.89589654 32.97532355 759.14381053 32.27936611 756.390625 31.578125 C733.19097032 25.75902646 709.74381109 20.92356008 686 18 C684.85192871 17.85191895 683.70385742 17.70383789 682.52099609 17.55126953 C627.40862141 10.55203562 563.20604226 15.87394271 514 44 Z " transform="translate(0,0)" style="fill: #FEFEFE;"/><path d="M0 0 C0.53028809 0.391875 1.06057617 0.78375 1.60693359 1.1875 C8.03077789 5.95003733 14.24013829 10.89955587 20.1171875 16.33203125 C22.11721867 18.18288102 22.11721867 18.18288102 25.125 20.0625 C25.74375 20.701875 26.3625 21.34125 27 22 C26.93113135 25.99438174 26.8685771 28.1314229 24 31 C19.84362317 30.82605471 17.28945858 27.83374852 14.375 25.1875 C-8.69755663 5.05959916 -37.64082989 -9.3103721 -68 -14 C-69.28519531 -14.20238281 -70.57039062 -14.40476562 -71.89453125 -14.61328125 C-108.20170877 -19.72839249 -144.83748805 -13.33160708 -179.90234375 -3.94921875 C-180.62058319 -3.7583884 -181.33882263 -3.56755806 -182.0788269 -3.37094498 C-198.30589535 0.95207707 -214.32742573 5.89795548 -230.34130859 10.94476318 C-236.81830177 12.98576321 -243.29817414 15.01746798 -249.78125 17.0390625 C-250.47207672 17.25480171 -251.16290344 17.47054092 -251.87466431 17.69281769 C-264.46570012 21.61635403 -277.14163185 25.13183542 -289.91784668 28.40853882 C-292.03582581 28.94050034 -292.03582581 28.94050034 -294 30 C-301.26788686 30.57681642 -301.26788686 30.57681642 -304.0625 28.375 C-305.35687583 25.09591455 -305.13203164 23.32534294 -304 20 C-300.20974914 17.17134982 -296.29726275 16.18953954 -291.75 15.25 C-270.16370728 10.42606482 -249.06257646 3.64536232 -227.93481445 -2.84912109 C-192.4481958 -13.74355295 -156.97269727 -23.70895669 -120 -28 C-118.81748657 -28.14465698 -118.81748657 -28.14465698 -117.61108398 -28.29223633 C-77.1638629 -32.86786132 -33.05864424 -24.68877533 0 0 Z " transform="translate(390,334)" style="fill: #7ADEFA;"/><path d="M0 0 C0.53028809 0.391875 1.06057617 0.78375 1.60693359 1.1875 C8.03077789 5.95003733 14.24013829 10.89955587 20.1171875 16.33203125 C22.11721867 18.18288102 22.11721867 18.18288102 25.125 20.0625 C25.74375 20.701875 26.3625 21.34125 27 22 C26.93113135 25.99438174 26.8685771 28.1314229 24 31 C19.84362317 30.82605471 17.28945858 27.83374852 14.375 25.1875 C-8.69755663 5.05959916 -37.64082989 -9.3103721 -68 -14 C-69.28519531 -14.20238281 -70.57039062 -14.40476562 -71.89453125 -14.61328125 C-108.20170877 -19.72839249 -144.83748805 -13.33160708 -179.90234375 -3.94921875 C-180.62058319 -3.7583884 -181.33882263 -3.56755806 -182.0788269 -3.37094498 C-198.30589535 0.95207707 -214.32742573 5.89795548 -230.34130859 10.94476318 C-236.81830177 12.98576321 -243.29817414 15.01746798 -249.78125 17.0390625 C-250.47207672 17.25480171 -251.16290344 17.47054092 -251.87466431 17.69281769 C-264.46570012 21.61635403 -277.14163185 25.13183542 -289.91784668 28.40853882 C-292.03582581 28.94050034 -292.03582581 28.94050034 -294 30 C-301.26788686 30.57681642 -301.26788686 30.57681642 -304.0625 28.375 C-305.35687583 25.09591455 -305.13203164 23.32534294 -304 20 C-300.20974914 17.17134982 -296.29726275 16.18953954 -291.75 15.25 C-269.9563118 10.3797177 -248.65401932 3.51953868 -227.31958008 -3.02490234 C-217.23899722 -6.11585509 -207.15688573 -9.16766481 -197 -12 C-195.87891846 -12.31573975 -194.75783691 -12.63147949 -193.6027832 -12.95678711 C-130.23969639 -30.68243828 -56.70216387 -42.34617047 0 0 Z " transform="translate(390,590)" style="fill: #7ADEFA;"/><path d="M0 0 C0.53028809 0.391875 1.06057617 0.78375 1.60693359 1.1875 C8.03077789 5.95003733 14.24013829 10.89955587 20.1171875 16.33203125 C22.11721867 18.18288102 22.11721867 18.18288102 25.125 20.0625 C25.74375 20.701875 26.3625 21.34125 27 22 C26.93113135 25.99438174 26.8685771 28.1314229 24 31 C19.84362317 30.82605471 17.28945858 27.83374852 14.375 25.1875 C-8.69755663 5.05959916 -37.64082989 -9.3103721 -68 -14 C-69.28519531 -14.20238281 -70.57039062 -14.40476562 -71.89453125 -14.61328125 C-108.20170877 -19.72839249 -144.83748805 -13.33160708 -179.90234375 -3.94921875 C-180.62058319 -3.7583884 -181.33882263 -3.56755806 -182.0788269 -3.37094498 C-198.30589535 0.95207707 -214.32742573 5.89795548 -230.34130859 10.94476318 C-236.81830177 12.98576321 -243.29817414 15.01746798 -249.78125 17.0390625 C-250.47207672 17.25480171 -251.16290344 17.47054092 -251.87466431 17.69281769 C-264.46570012 21.61635403 -277.14163185 25.13183542 -289.91784668 28.40853882 C-292.03582581 28.94050034 -292.03582581 28.94050034 -294 30 C-301.26788686 30.57681642 -301.26788686 30.57681642 -304.0625 28.375 C-305.35687583 25.09591455 -305.13203164 23.32534294 -304 20 C-300.20974914 17.17134982 -296.29726275 16.18953954 -291.75 15.25 C-269.9563118 10.3797177 -248.65401932 3.51953868 -227.31958008 -3.02490234 C-217.23899722 -6.11585509 -207.15688573 -9.16766481 -197 -12 C-195.87891846 -12.31573975 -194.75783691 -12.63147949 -193.6027832 -12.95678711 C-130.23969639 -30.68243828 -56.70216387 -42.34617047 0 0 Z " transform="translate(390,462)" style="fill: #7ADEFA;"/><path d="M0 0 C0.94697754 0.1551709 1.89395508 0.3103418 2.86962891 0.47021484 C9.26860275 1.53870733 15.63815206 2.73009624 22 4 C22.76441406 4.15049805 23.52882813 4.30099609 24.31640625 4.45605469 C36.5889983 6.90732638 48.52200659 10.36977364 60.50439453 13.95654297 C64.21766185 15.06497323 67.93432244 16.16156008 71.65234375 17.25390625 C72.65254799 17.54782005 72.65254799 17.54782005 73.67295837 17.84767151 C75.76108975 18.46111519 77.84928835 19.07432964 79.9375 19.6875 C82.83603436 20.53873316 85.73447237 21.39029325 88.6328125 22.2421875 C89.37849991 22.46132309 90.12418732 22.68045868 90.89247131 22.90623474 C95.88393989 24.37427879 100.8725939 25.85160761 105.86012268 27.33297729 C110.34302094 28.66364851 114.82734386 29.98946047 119.3125 31.3125 C120.18991852 31.57138 121.06733704 31.83026001 121.97134399 32.09698486 C132.5815764 35.21931722 143.18068406 38.26345967 154.00512695 40.56958008 C159.43846494 41.74128375 164.97333546 42.97333546 169 47 C168.53846154 53.46153846 168.53846154 53.46153846 166 56 C160.09266695 56.54118793 155.04748175 55.17538266 149.4375 53.5625 C148.01606689 53.16369629 148.01606689 53.16369629 146.56591797 52.75683594 C128.58443956 47.66703134 110.7186781 42.18614271 92.89480591 36.57327271 C78.78304725 32.13132562 64.63223316 27.87460252 50.37060547 23.93359375 C48.13857596 23.31536393 45.9083862 22.69044986 43.68017578 22.05859375 C30.26718359 18.26542098 16.88987772 15.26179404 3.125 13.125 C2.128172 12.96954208 2.128172 12.96954208 1.11120605 12.8109436 C-12.59293424 10.70403958 -26.0788341 9.81959609 -39.9375 9.8125 C-41.81985352 9.79413086 -41.81985352 9.79413086 -43.74023438 9.77539062 C-84.65760735 9.7120837 -126.18626655 27.17709595 -155.31640625 55.91796875 C-157 57 -157 57 -159.08984375 56.86328125 C-161 56 -161 56 -163 53 C-163.54296875 50.69921875 -163.54296875 50.69921875 -163 48 C-161.03589092 45.62189144 -158.70249658 43.74974044 -156.3125 41.8125 C-155.63058594 41.24370117 -154.94867187 40.67490234 -154.24609375 40.08886719 C-152.1776707 38.37511333 -150.09152251 36.68544086 -148 35 C-147.42427246 34.52804199 -146.84854492 34.05608398 -146.25537109 33.56982422 C-104.53915274 -0.54561106 -52.15545603 -8.62782964 0 0 Z " transform="translate(709,88)" style="fill: #7ADEFA;"/><path d="M0 0 C0.94697754 0.1551709 1.89395508 0.3103418 2.86962891 0.47021484 C9.26860275 1.53870733 15.63815206 2.73009624 22 4 C22.76441406 4.15049805 23.52882813 4.30099609 24.31640625 4.45605469 C36.5889983 6.90732638 48.52200659 10.36977364 60.50439453 13.95654297 C64.21766185 15.06497323 67.93432244 16.16156008 71.65234375 17.25390625 C72.65254799 17.54782005 72.65254799 17.54782005 73.67295837 17.84767151 C75.76108975 18.46111519 77.84928835 19.07432964 79.9375 19.6875 C82.83603436 20.53873316 85.73447237 21.39029325 88.6328125 22.2421875 C89.37849991 22.46132309 90.12418732 22.68045868 90.89247131 22.90623474 C95.88393989 24.37427879 100.8725939 25.85160761 105.86012268 27.33297729 C110.34302094 28.66364851 114.82734386 29.98946047 119.3125 31.3125 C120.18991852 31.57138 121.06733704 31.83026001 121.97134399 32.09698486 C132.5815764 35.21931722 143.18068406 38.26345967 154.00512695 40.56958008 C159.43846494 41.74128375 164.97333546 42.97333546 169 47 C168.53846154 53.46153846 168.53846154 53.46153846 166 56 C160.09266695 56.54118793 155.04748175 55.17538266 149.4375 53.5625 C148.01606689 53.16369629 148.01606689 53.16369629 146.56591797 52.75683594 C128.58443956 47.66703134 110.7186781 42.18614271 92.89480591 36.57327271 C78.78304725 32.13132562 64.63223316 27.87460252 50.37060547 23.93359375 C48.13857596 23.31536393 45.9083862 22.69044986 43.68017578 22.05859375 C30.26718359 18.26542098 16.88987772 15.26179404 3.125 13.125 C2.128172 12.96954208 2.128172 12.96954208 1.11120605 12.8109436 C-12.59293424 10.70403958 -26.0788341 9.81959609 -39.9375 9.8125 C-41.81985352 9.79413086 -41.81985352 9.79413086 -43.74023438 9.77539062 C-84.65760735 9.7120837 -126.18626655 27.17709595 -155.31640625 55.91796875 C-157 57 -157 57 -159.08984375 56.86328125 C-161 56 -161 56 -163 53 C-163.5078125 50.6640625 -163.5078125 50.6640625 -163 48 C-161.00167955 45.8802011 -159.13543884 44.17130252 -156.875 42.375 C-156.24263428 41.85574951 -155.61026855 41.33649902 -154.95874023 40.80151367 C-153.63532291 39.7201189 -152.30601804 38.64589296 -150.97119141 37.57861328 C-149.12526436 36.10031699 -147.30112586 34.59906589 -145.48046875 33.08984375 C-104.08679779 -0.81208088 -51.7227885 -8.5562555 0 0 Z " transform="translate(709,472)" style="fill: #7ADEFA;"/><path d="M0 0 C0.94697754 0.1551709 1.89395508 0.3103418 2.86962891 0.47021484 C9.26860275 1.53870733 15.63815206 2.73009624 22 4 C22.76441406 4.15049805 23.52882813 4.30099609 24.31640625 4.45605469 C36.5889983 6.90732638 48.52200659 10.36977364 60.50439453 13.95654297 C64.21766185 15.06497323 67.93432244 16.16156008 71.65234375 17.25390625 C72.65254799 17.54782005 72.65254799 17.54782005 73.67295837 17.84767151 C75.76108975 18.46111519 77.84928835 19.07432964 79.9375 19.6875 C82.83603436 20.53873316 85.73447237 21.39029325 88.6328125 22.2421875 C89.37849991 22.46132309 90.12418732 22.68045868 90.89247131 22.90623474 C95.88393989 24.37427879 100.8725939 25.85160761 105.86012268 27.33297729 C110.34302094 28.66364851 114.82734386 29.98946047 119.3125 31.3125 C120.18991852 31.57138 121.06733704 31.83026001 121.97134399 32.09698486 C132.5815764 35.21931722 143.18068406 38.26345967 154.00512695 40.56958008 C159.43846494 41.74128375 164.97333546 42.97333546 169 47 C168.53846154 53.46153846 168.53846154 53.46153846 166 56 C160.09266695 56.54118793 155.04748175 55.17538266 149.4375 53.5625 C148.01606689 53.16369629 148.01606689 53.16369629 146.56591797 52.75683594 C128.58443956 47.66703134 110.7186781 42.18614271 92.89480591 36.57327271 C78.78304725 32.13132562 64.63223316 27.87460252 50.37060547 23.93359375 C48.13857596 23.31536393 45.9083862 22.69044986 43.68017578 22.05859375 C30.26718359 18.26542098 16.88987772 15.26179404 3.125 13.125 C2.128172 12.96954208 2.128172 12.96954208 1.11120605 12.8109436 C-12.59293424 10.70403958 -26.0788341 9.81959609 -39.9375 9.8125 C-41.81985352 9.79413086 -41.81985352 9.79413086 -43.74023438 9.77539062 C-84.65760735 9.7120837 -126.18626655 27.17709595 -155.31640625 55.91796875 C-157 57 -157 57 -159.08984375 56.86328125 C-161 56 -161 56 -163 53 C-163.5078125 50.6640625 -163.5078125 50.6640625 -163 48 C-161.00167955 45.8802011 -159.13543884 44.17130252 -156.875 42.375 C-156.24263428 41.85574951 -155.61026855 41.33649902 -154.95874023 40.80151367 C-153.63532291 39.7201189 -152.30601804 38.64589296 -150.97119141 37.57861328 C-149.12526436 36.10031699 -147.30112586 34.59906589 -145.48046875 33.08984375 C-104.08679779 -0.81208088 -51.7227885 -8.5562555 0 0 Z " transform="translate(709,344)" style="fill: #7ADEFA;"/><path d="M0 0 C0.86802246 0.19335938 1.73604492 0.38671875 2.63037109 0.5859375 C31.53922433 7.22293906 56.13291293 21.08202824 77.83203125 41.08203125 C80.41793394 43.36973976 83.0511951 45.21519704 86 47 C85.25 53.75 85.25 53.75 83 56 C78.92929019 55.71972162 76.98163746 54.4357477 74.125 51.625 C52.88995507 32.03418425 26.12946425 19.06966943 -2 13 C-3.12647949 12.74033447 -4.25295898 12.48066895 -5.41357422 12.21313477 C-16.56054245 9.84498393 -27.37888765 9.48227963 -38.75 9.5625 C-40.16646317 9.56805908 -40.16646317 9.56805908 -41.61154175 9.57373047 C-57.71032512 9.66330293 -73.19513956 10.72633884 -89 14 C-89.64439026 14.13339783 -90.28878052 14.26679565 -90.95269775 14.40423584 C-111.12796918 18.61499522 -130.8605857 24.08480447 -150.53027344 30.22998047 C-159.9721366 33.17379585 -169.42430208 36.08470224 -178.875 39 C-180.00180176 39.34764404 -181.12860352 39.69528809 -182.28955078 40.0534668 C-196.118859 44.31606108 -209.95572964 48.53971252 -223.875 52.5 C-224.52531189 52.68771973 -225.17562378 52.87543945 -225.84564209 53.06884766 C-227.64204326 53.58573093 -229.44203198 54.09009774 -231.2421875 54.59375 C-232.70954346 55.00657227 -232.70954346 55.00657227 -234.20654297 55.42773438 C-237.24013299 56.04919347 -239.91186298 56.21655786 -243 56 C-245.30461651 53.92584514 -245.8947981 52.52600949 -246.5 49.5 C-246 47 -246 47 -244.0546875 44.98828125 C-240.0352629 42.37205731 -236.26855768 41.66268368 -231.625 40.6875 C-224.10993345 39.0513468 -216.76082627 37.12068126 -209.421875 34.82421875 C-207.40010573 34.20059349 -205.37812456 33.5776549 -203.35595703 32.95532227 C-202.31377014 32.63379181 -201.27158325 32.31226135 -200.19781494 31.98098755 C-103.60912342 2.35066013 -103.60912342 2.35066013 -66 -2 C-65.18909912 -2.09571289 -64.37819824 -2.19142578 -63.54272461 -2.29003906 C-42.8901997 -4.4596915 -20.2889736 -4.64806534 0 0 Z " transform="translate(331,247)" style="fill: #7ADEFA;"/><path d="M0 0 C0.53028809 0.391875 1.06057617 0.78375 1.60693359 1.1875 C8.03077789 5.95003733 14.24013829 10.89955587 20.1171875 16.33203125 C22.11721867 18.18288102 22.11721867 18.18288102 25.125 20.0625 C25.74375 20.701875 26.3625 21.34125 27 22 C26.93113135 25.99438174 26.8685771 28.1314229 24 31 C19.84362317 30.82605471 17.28945858 27.83374852 14.375 25.1875 C-8.69755663 5.05959916 -37.64082989 -9.3103721 -68 -14 C-69.28519531 -14.20238281 -70.57039062 -14.40476563 -71.89453125 -14.61328125 C-108.20170877 -19.72839249 -144.83748805 -13.33160708 -179.90234375 -3.94921875 C-180.62058319 -3.7583884 -181.33882263 -3.56755806 -182.0788269 -3.37094498 C-198.30589535 0.95207707 -214.32742573 5.89795548 -230.34130859 10.94476318 C-236.81830177 12.98576321 -243.29817414 15.01746798 -249.78125 17.0390625 C-250.47207672 17.25480171 -251.16290344 17.47054092 -251.87466431 17.69281769 C-264.46570012 21.61635403 -277.14163185 25.13183542 -289.91784668 28.40853882 C-292.03582581 28.94050034 -292.03582581 28.94050034 -294 30 C-301.26788686 30.57681642 -301.26788686 30.57681642 -304.0625 28.375 C-305.35687583 25.09591455 -305.13203164 23.32534294 -304 20 C-300.20974914 17.17134982 -296.29726275 16.18953954 -291.75 15.25 C-269.9563118 10.3797177 -248.65401932 3.51953868 -227.31958008 -3.02490234 C-217.23889329 -6.11587076 -207.1559378 -9.16403448 -197 -12 C-195.88423584 -12.31573975 -194.76847168 -12.63147949 -193.61889648 -12.95678711 C-130.29876417 -30.76794877 -56.63139359 -42.29331799 0 0 Z " transform="translate(390,206)" style="fill: #7ADEFA;"/><path d="M0 0 C0.81052826 -0.00295074 1.62105652 -0.00590149 2.45614624 -0.00894165 C18.52988388 -0.02215159 33.95086245 1.64455274 49.8125 4.3125 C51.25230174 4.53194148 52.69235793 4.74972927 54.1328125 4.96484375 C82.39082244 9.63382379 110.08254507 19.12141031 137.453125 27.3125 C138.54502136 27.63916153 139.63691772 27.96582306 140.76190186 28.30238342 C145.29599893 29.65936551 149.82996327 31.01672355 154.36187744 32.38098145 C168.41968445 36.61167735 182.41601257 40.63328666 196.73828125 43.86328125 C198.42630859 44.26353516 198.42630859 44.26353516 200.1484375 44.671875 C201.12345215 44.89327148 202.0984668 45.11466797 203.10302734 45.34277344 C206.33207495 46.49845708 208.37796969 47.90289662 210.8125 50.3125 C210.8125 53.9375 210.8125 53.9375 209.8125 57.3125 C205.46014197 60.21407202 202.52147777 58.9421708 197.52246094 58.07421875 C191.24220319 56.78477388 185.09426336 55.0894811 178.9375 53.3125 C178.24765015 53.11619995 177.55780029 52.9198999 176.8470459 52.71765137 C165.5848204 49.51280688 154.44511649 45.9829353 143.31835938 42.33496094 C109.4591315 31.27842759 75.09522882 20.68625792 39.8125 15.3125 C38.6565332 15.13444824 37.50056641 14.95639648 36.30957031 14.77294922 C25.42433819 13.24464624 14.67094384 12.91133931 3.6875 12.9375 C2.78519653 12.93837616 1.88289307 12.93925232 0.95324707 12.94015503 C-12.76483453 12.98403953 -25.91377283 13.54152422 -39.1875 17.3125 C-40.05101074 17.55387695 -40.91452148 17.79525391 -41.80419922 18.04394531 C-67.99597637 25.59789519 -93.06645671 38.75881324 -112.40625 58.23046875 C-114.1875 59.3125 -114.1875 59.3125 -116.78125 59.17578125 C-119.1875 58.3125 -119.1875 58.3125 -121.1875 55.3125 C-121.54296875 52.8203125 -121.54296875 52.8203125 -121.1875 50.3125 C-119.67578125 48.6796875 -119.67578125 48.6796875 -117.5 47.1875 C-114.07928748 44.72736198 -110.83517873 42.18533054 -107.66772461 39.40429688 C-77.36126586 12.89133099 -39.98620575 0.12818203 0 0 Z " transform="translate(667.1875,499.6875)" style="fill: #7ADEFA;"/><path d="M0 0 C0.81052826 -0.00295074 1.62105652 -0.00590149 2.45614624 -0.00894165 C18.52988388 -0.02215159 33.95086245 1.64455274 49.8125 4.3125 C51.25230174 4.53194148 52.69235793 4.74972927 54.1328125 4.96484375 C82.39082244 9.63382379 110.08254507 19.12141031 137.453125 27.3125 C138.54502136 27.63916153 139.63691772 27.96582306 140.76190186 28.30238342 C145.29599893 29.65936551 149.82996327 31.01672355 154.36187744 32.38098145 C168.41968445 36.61167735 182.41601257 40.63328666 196.73828125 43.86328125 C198.42630859 44.26353516 198.42630859 44.26353516 200.1484375 44.671875 C201.12345215 44.89327148 202.0984668 45.11466797 203.10302734 45.34277344 C206.33207495 46.49845708 208.37796969 47.90289662 210.8125 50.3125 C210.8125 53.9375 210.8125 53.9375 209.8125 57.3125 C205.46014197 60.21407202 202.52147777 58.9421708 197.52246094 58.07421875 C191.24220319 56.78477388 185.09426336 55.0894811 178.9375 53.3125 C178.24765015 53.11619995 177.55780029 52.9198999 176.8470459 52.71765137 C165.5848204 49.51280688 154.44511649 45.9829353 143.31835938 42.33496094 C109.4591315 31.27842759 75.09522882 20.68625792 39.8125 15.3125 C38.6565332 15.13444824 37.50056641 14.95639648 36.30957031 14.77294922 C25.42433819 13.24464624 14.67094384 12.91133931 3.6875 12.9375 C2.78519653 12.93837616 1.88289307 12.93925232 0.95324707 12.94015503 C-12.76483453 12.98403953 -25.91377283 13.54152422 -39.1875 17.3125 C-40.05101074 17.55387695 -40.91452148 17.79525391 -41.80419922 18.04394531 C-67.99597637 25.59789519 -93.06645671 38.75881324 -112.40625 58.23046875 C-114.1875 59.3125 -114.1875 59.3125 -116.78125 59.17578125 C-119.1875 58.3125 -119.1875 58.3125 -121.1875 55.3125 C-121.54296875 52.8203125 -121.54296875 52.8203125 -121.1875 50.3125 C-119.67578125 48.6796875 -119.67578125 48.6796875 -117.5 47.1875 C-114.07928748 44.72736198 -110.83517873 42.18533054 -107.66772461 39.40429688 C-77.36126586 12.89133099 -39.98620575 0.12818203 0 0 Z " transform="translate(667.1875,371.6875)" style="fill: #7ADEFA;"/><path d="M0 0 C0.81052826 -0.00295074 1.62105652 -0.00590149 2.45614624 -0.00894165 C18.52988388 -0.02215159 33.95086245 1.64455274 49.8125 4.3125 C51.25230174 4.53194148 52.69235793 4.74972927 54.1328125 4.96484375 C82.39082244 9.63382379 110.08254507 19.12141031 137.453125 27.3125 C138.54502136 27.63916153 139.63691772 27.96582306 140.76190186 28.30238342 C145.29599893 29.65936551 149.82996327 31.01672355 154.36187744 32.38098145 C168.41968445 36.61167735 182.41601257 40.63328666 196.73828125 43.86328125 C198.42630859 44.26353516 198.42630859 44.26353516 200.1484375 44.671875 C201.12345215 44.89327148 202.0984668 45.11466797 203.10302734 45.34277344 C206.33207495 46.49845708 208.37796969 47.90289662 210.8125 50.3125 C210.8125 53.9375 210.8125 53.9375 209.8125 57.3125 C205.46014197 60.21407202 202.52147777 58.9421708 197.52246094 58.07421875 C191.24220319 56.78477388 185.09426336 55.0894811 178.9375 53.3125 C178.24765015 53.11619995 177.55780029 52.9198999 176.8470459 52.71765137 C165.5848204 49.51280688 154.44511649 45.9829353 143.31835938 42.33496094 C109.4591315 31.27842759 75.09522882 20.68625792 39.8125 15.3125 C38.6565332 15.13444824 37.50056641 14.95639648 36.30957031 14.77294922 C25.42433819 13.24464624 14.67094384 12.91133931 3.6875 12.9375 C2.78519653 12.93837616 1.88289307 12.93925232 0.95324707 12.94015503 C-12.76483453 12.98403953 -25.91377283 13.54152422 -39.1875 17.3125 C-40.05101074 17.55387695 -40.91452148 17.79525391 -41.80419922 18.04394531 C-67.99597637 25.59789519 -93.06645671 38.75881324 -112.40625 58.23046875 C-114.1875 59.3125 -114.1875 59.3125 -116.78125 59.17578125 C-119.1875 58.3125 -119.1875 58.3125 -121.1875 55.3125 C-121.54296875 52.8203125 -121.54296875 52.8203125 -121.1875 50.3125 C-119.67578125 48.6796875 -119.67578125 48.6796875 -117.5 47.1875 C-114.07928748 44.72736198 -110.83517873 42.18533054 -107.66772461 39.40429688 C-77.36126586 12.89133099 -39.98620575 0.12818203 0 0 Z " transform="translate(667.1875,243.6875)" style="fill: #7ADEFA;"/><path d="M0 0 C16.15584241 4.86612824 32.32559892 9.55921371 48.70889282 13.6026001 C49.93535522 13.91108887 51.16181763 14.21957764 52.42544556 14.53741455 C53.46612183 14.7905542 54.5067981 15.04369385 55.57901001 15.30450439 C58.35700024 16.23752717 60.13042801 17.18395663 62.24966431 19.20147705 C62.71028908 22.36004691 62.93552825 24.27095417 60.99980164 26.89718628 C58.08569383 29.06892666 55.55700488 28.17073516 52.10656738 27.70605469 C47.09620135 26.82113889 42.20028688 25.60975945 37.28482056 24.30303955 C35.54749413 23.84642441 35.54749413 23.84642441 33.77507019 23.38058472 C19.03211323 19.43407831 4.48222601 14.84535626 -10.07730103 10.27746582 C-16.73779481 8.18895813 -23.40193244 6.11210191 -30.06674194 4.03741455 C-30.77050398 3.81813545 -31.47426601 3.59885635 -32.19935417 3.37293243 C-42.66562922 0.1149508 -53.16335967 -2.95449502 -63.75033569 -5.79852295 C-65.27633313 -6.22907659 -66.80170615 -6.66184833 -68.32650757 -7.09661865 C-117.18283579 -21.0063762 -172.12200857 -24.67992687 -218.75033569 -1.79852295 C-219.67290161 -1.35452148 -219.67290161 -1.35452148 -220.61410522 -0.90155029 C-234.88843281 6.03876501 -248.03869662 15.15490999 -259.64144897 25.987854 C-263.21211433 29.20619002 -263.21211433 29.20619002 -265.98080444 29.1819458 C-267.75033569 28.20147705 -267.75033569 28.20147705 -269.75033569 25.20147705 C-270.22689819 22.83428955 -270.22689819 22.83428955 -269.75033569 20.20147705 C-267.91003448 18.23889669 -266.2268563 16.71026203 -264.12533569 15.07647705 C-263.24615479 14.36696899 -263.24615479 14.36696899 -262.34921265 13.64312744 C-261.11115449 12.64790967 -259.86759751 11.65949872 -258.61898804 10.67755127 C-256.83800154 9.27072551 -255.08295465 7.83725758 -253.33236694 6.3928833 C-177.55409559 -55.53485875 -83.96762083 -25.29666761 0 0 Z " transform="translate(815.7503356933594,207.79852294921875)" style="fill: #7ADEFA;"/><path d="M0 0 C16.15584241 4.86612824 32.32559892 9.55921371 48.70889282 13.6026001 C49.93535522 13.91108887 51.16181763 14.21957764 52.42544556 14.53741455 C53.46612183 14.7905542 54.5067981 15.04369385 55.57901001 15.30450439 C58.35700024 16.23752717 60.13042801 17.18395663 62.24966431 19.20147705 C62.71028908 22.36004691 62.93552825 24.27095417 60.99980164 26.89718628 C58.08569383 29.06892666 55.55700488 28.17073516 52.10656738 27.70605469 C47.09620135 26.82113889 42.20028688 25.60975945 37.28482056 24.30303955 C35.54749413 23.84642441 35.54749413 23.84642441 33.77507019 23.38058472 C19.03211323 19.43407831 4.48222601 14.84535626 -10.07730103 10.27746582 C-16.73779481 8.18895813 -23.40193244 6.11210191 -30.06674194 4.03741455 C-30.77050398 3.81813545 -31.47426601 3.59885635 -32.19935417 3.37293243 C-42.66562922 0.1149508 -53.16335967 -2.95449502 -63.75033569 -5.79852295 C-65.27633313 -6.22907659 -66.80170615 -6.66184833 -68.32650757 -7.09661865 C-117.18283579 -21.0063762 -172.12200857 -24.67992687 -218.75033569 -1.79852295 C-219.67290161 -1.35452148 -219.67290161 -1.35452148 -220.61410522 -0.90155029 C-234.88843281 6.03876501 -248.03869662 15.15490999 -259.64144897 25.987854 C-263.21211433 29.20619002 -263.21211433 29.20619002 -265.98080444 29.1819458 C-267.75033569 28.20147705 -267.75033569 28.20147705 -269.75033569 25.20147705 C-270.18392944 22.7835083 -270.18392944 22.7835083 -269.75033569 20.20147705 C-267.66049194 18.0256958 -267.66049194 18.0256958 -264.81283569 15.88897705 C-261.19716277 13.10237562 -257.71306825 10.315451 -254.37533569 7.20147705 C-181.80698042 -57.66050421 -81.69221353 -24.61116263 0 0 Z " transform="translate(815.7503356933594,335.79852294921875)" style="fill: #7ADEFA;"/><path d="M0 0 C0.80053802 -0.00045319 1.60107605 -0.00090637 2.4258728 -0.00137329 C18.408404 0.02495903 33.79300448 1.72255115 49.5625 4.375 C51.00230174 4.59444148 52.44235793 4.81222927 53.8828125 5.02734375 C82.14082244 9.69632379 109.83254507 19.18391031 137.203125 27.375 C138.29502136 27.70166153 139.38691772 28.02832306 140.51190186 28.36488342 C145.04599893 29.72186551 149.57996327 31.07922355 154.11187744 32.44348145 C168.16968445 36.67417735 182.16601257 40.69578666 196.48828125 43.92578125 C198.17630859 44.32603516 198.17630859 44.32603516 199.8984375 44.734375 C200.87345215 44.95577148 201.8484668 45.17716797 202.85302734 45.40527344 C206.08207495 46.56095708 208.12796969 47.96539662 210.5625 50.375 C210.5625 54 210.5625 54 209.5625 57.375 C205.21014197 60.27657202 202.27147777 59.0046708 197.27246094 58.13671875 C190.99220319 56.84727388 184.84426336 55.1519811 178.6875 53.375 C177.99765015 53.17869995 177.30780029 52.9823999 176.5970459 52.78015137 C165.3348204 49.57530688 154.19511649 46.0454353 143.06835938 42.39746094 C109.2091315 31.34092759 74.84522882 20.74875792 39.5625 15.375 C38.4065332 15.19694824 37.25056641 15.01889648 36.05957031 14.83544922 C25.17433819 13.30714624 14.42094384 12.97383931 3.4375 13 C2.53519653 13.00087616 1.63289307 13.00175232 0.70324707 13.00265503 C-13.01483453 13.04653953 -26.16377283 13.60402422 -39.4375 17.375 C-40.30101074 17.61637695 -41.16452148 17.85775391 -42.05419922 18.10644531 C-68.24597637 25.66039519 -93.31645671 38.82131324 -112.65625 58.29296875 C-114.4375 59.375 -114.4375 59.375 -117.03125 59.23828125 C-119.4375 58.375 -119.4375 58.375 -121.4375 55.375 C-121.79296875 52.8828125 -121.79296875 52.8828125 -121.4375 50.375 C-119.92578125 48.7421875 -119.92578125 48.7421875 -117.75 47.25 C-114.32928748 44.78986198 -111.08517873 42.24783054 -107.91772461 39.46679688 C-85.80380056 20.12089708 -59.33323676 7.53146832 -30.4375 2.375 C-29.50768311 2.19839844 -28.57786621 2.02179688 -27.61987305 1.83984375 C-18.38902932 0.2278464 -9.34099671 -0.02068332 0 0 Z " transform="translate(667.4375,115.625)" style="fill: #7ADEFA;"/><path d="M0 0 C16.15584241 4.86612824 32.32559892 9.55921371 48.70889282 13.6026001 C49.93535522 13.91108887 51.16181763 14.21957764 52.42544556 14.53741455 C53.46612183 14.7905542 54.5067981 15.04369385 55.57901001 15.30450439 C58.35700024 16.23752717 60.13042801 17.18395663 62.24966431 19.20147705 C62.71028908 22.36004691 62.93552825 24.27095417 60.99980164 26.89718628 C58.08569383 29.06892666 55.55700488 28.17073516 52.10656738 27.70605469 C47.09620135 26.82113889 42.20028688 25.60975945 37.28482056 24.30303955 C35.54749413 23.84642441 35.54749413 23.84642441 33.77507019 23.38058472 C19.03211323 19.43407831 4.48222601 14.84535626 -10.07730103 10.27746582 C-16.73779481 8.18895813 -23.40193244 6.11210191 -30.06674194 4.03741455 C-30.77050398 3.81813545 -31.47426601 3.59885635 -32.19935417 3.37293243 C-42.66562922 0.1149508 -53.16335967 -2.95449502 -63.75033569 -5.79852295 C-65.27633313 -6.22907659 -66.80170615 -6.66184833 -68.32650757 -7.09661865 C-117.18283579 -21.0063762 -172.12200857 -24.67992687 -218.75033569 -1.79852295 C-219.67290161 -1.35452148 -219.67290161 -1.35452148 -220.61410522 -0.90155029 C-234.88843281 6.03876501 -248.03869662 15.15490999 -259.64144897 25.987854 C-263.21211433 29.20619002 -263.21211433 29.20619002 -265.98080444 29.1819458 C-267.75033569 28.20147705 -267.75033569 28.20147705 -269.75033569 25.20147705 C-270.18392944 22.7835083 -270.18392944 22.7835083 -269.75033569 20.20147705 C-267.66049194 18.0256958 -267.66049194 18.0256958 -264.81283569 15.88897705 C-261.19716277 13.10237562 -257.71306825 10.315451 -254.37533569 7.20147705 C-181.80698042 -57.66050421 -81.69221353 -24.61116263 0 0 Z " transform="translate(815.7503356933594,591.7985229492188)" style="fill: #7ADEFA;"/><path d="M0 0 C16.15584241 4.86612824 32.32559892 9.55921371 48.70889282 13.6026001 C49.93535522 13.91108887 51.16181763 14.21957764 52.42544556 14.53741455 C53.46612183 14.7905542 54.5067981 15.04369385 55.57901001 15.30450439 C58.35700024 16.23752717 60.13042801 17.18395663 62.24966431 19.20147705 C62.71028908 22.36004691 62.93552825 24.27095417 60.99980164 26.89718628 C58.08569383 29.06892666 55.55700488 28.17073516 52.10656738 27.70605469 C47.09620135 26.82113889 42.20028688 25.60975945 37.28482056 24.30303955 C35.54749413 23.84642441 35.54749413 23.84642441 33.77507019 23.38058472 C19.03211323 19.43407831 4.48222601 14.84535626 -10.07730103 10.27746582 C-16.73779481 8.18895813 -23.40193244 6.11210191 -30.06674194 4.03741455 C-30.77050398 3.81813545 -31.47426601 3.59885635 -32.19935417 3.37293243 C-42.66562922 0.1149508 -53.16335967 -2.95449502 -63.75033569 -5.79852295 C-65.27633313 -6.22907659 -66.80170615 -6.66184833 -68.32650757 -7.09661865 C-117.18283579 -21.0063762 -172.12200857 -24.67992687 -218.75033569 -1.79852295 C-219.67290161 -1.35452148 -219.67290161 -1.35452148 -220.61410522 -0.90155029 C-234.88843281 6.03876501 -248.03869662 15.15490999 -259.64144897 25.987854 C-263.21211433 29.20619002 -263.21211433 29.20619002 -265.98080444 29.1819458 C-267.75033569 28.20147705 -267.75033569 28.20147705 -269.75033569 25.20147705 C-270.18392944 22.7835083 -270.18392944 22.7835083 -269.75033569 20.20147705 C-267.66049194 18.0256958 -267.66049194 18.0256958 -264.81283569 15.88897705 C-261.19716277 13.10237562 -257.71306825 10.315451 -254.37533569 7.20147705 C-181.80698042 -57.66050421 -81.69221353 -24.61116263 0 0 Z " transform="translate(815.7503356933594,463.79852294921875)" style="fill: #7ADEFA;"/><path d="M0 0 C0.86802246 0.19335938 1.73604492 0.38671875 2.63037109 0.5859375 C31.53922433 7.22293906 56.13291293 21.08202824 77.83203125 41.08203125 C80.41793394 43.36973976 83.0511951 45.21519704 86 47 C85.25 53.75 85.25 53.75 83 56 C78.92929019 55.71972162 76.98163746 54.4357477 74.125 51.625 C52.88995507 32.03418425 26.12946425 19.06966943 -2 13 C-3.12647949 12.74033447 -4.25295898 12.48066895 -5.41357422 12.21313477 C-16.56054245 9.84498393 -27.37888765 9.48227963 -38.75 9.5625 C-40.16646317 9.56805908 -40.16646317 9.56805908 -41.61154175 9.57373047 C-57.71032512 9.66330293 -73.19513956 10.72633884 -89 14 C-89.64439026 14.13339783 -90.28878052 14.26679565 -90.95269775 14.40423584 C-111.12796918 18.61499522 -130.8605857 24.08480447 -150.53027344 30.22998047 C-159.9721366 33.17379585 -169.42430208 36.08470224 -178.875 39 C-180.00180176 39.34764404 -181.12860352 39.69528809 -182.28955078 40.0534668 C-196.118859 44.31606108 -209.95572964 48.53971252 -223.875 52.5 C-224.52531189 52.68771973 -225.17562378 52.87543945 -225.84564209 53.06884766 C-227.64204326 53.58573093 -229.44203198 54.09009774 -231.2421875 54.59375 C-232.70954346 55.00657227 -232.70954346 55.00657227 -234.20654297 55.42773438 C-237.24013299 56.04919347 -239.91186298 56.21655786 -243 56 C-245.30461651 53.92584514 -245.8947981 52.52600949 -246.5 49.5 C-246 47 -246 47 -244.0546875 44.98828125 C-240.0352629 42.37205731 -236.26855768 41.66268368 -231.625 40.6875 C-224.10993345 39.0513468 -216.76082627 37.12068126 -209.421875 34.82421875 C-207.40010573 34.20059349 -205.37812456 33.5776549 -203.35595703 32.95532227 C-202.31377014 32.63379181 -201.27158325 32.31226135 -200.19781494 31.98098755 C-117.89763038 6.73391797 -117.89763038 6.73391797 -85 1 C-84.10023438 0.84305664 -83.20046875 0.68611328 -82.2734375 0.52441406 C-55.67195194 -4.03668136 -26.528189 -6.07742699 0 0 Z " transform="translate(331,119)" style="fill: #7ADEFA;"/><path d="M0 0 C0.86802246 0.19335938 1.73604492 0.38671875 2.63037109 0.5859375 C31.53922433 7.22293906 56.13291293 21.08202824 77.83203125 41.08203125 C80.41793394 43.36973976 83.0511951 45.21519704 86 47 C85.25 53.75 85.25 53.75 83 56 C78.92929019 55.71972162 76.98163746 54.4357477 74.125 51.625 C52.88995507 32.03418425 26.12946425 19.06966943 -2 13 C-3.12647949 12.74033447 -4.25295898 12.48066895 -5.41357422 12.21313477 C-16.56054245 9.84498393 -27.37888765 9.48227963 -38.75 9.5625 C-40.16646317 9.56805908 -40.16646317 9.56805908 -41.61154175 9.57373047 C-57.71032512 9.66330293 -73.19513956 10.72633884 -89 14 C-89.64439026 14.13339783 -90.28878052 14.26679565 -90.95269775 14.40423584 C-111.12796918 18.61499522 -130.8605857 24.08480447 -150.53027344 30.22998047 C-159.9721366 33.17379585 -169.42430208 36.08470224 -178.875 39 C-180.00180176 39.34764404 -181.12860352 39.69528809 -182.28955078 40.0534668 C-196.118859 44.31606108 -209.95572964 48.53971252 -223.875 52.5 C-224.52531189 52.68771973 -225.17562378 52.87543945 -225.84564209 53.06884766 C-227.64204326 53.58573093 -229.44203198 54.09009774 -231.2421875 54.59375 C-232.70954346 55.00657227 -232.70954346 55.00657227 -234.20654297 55.42773438 C-237.24013299 56.04919347 -239.91186298 56.21655786 -243 56 C-245.30461651 53.92584514 -245.8947981 52.52600949 -246.5 49.5 C-246 47 -246 47 -244.0546875 44.98828125 C-240.0352629 42.37205731 -236.26855768 41.66268368 -231.625 40.6875 C-224.10993345 39.0513468 -216.76082627 37.12068126 -209.421875 34.82421875 C-207.40010573 34.20059349 -205.37812456 33.5776549 -203.35595703 32.95532227 C-202.31377014 32.63379181 -201.27158325 32.31226135 -200.19781494 31.98098755 C-117.89763038 6.73391797 -117.89763038 6.73391797 -85 1 C-84.10023438 0.84305664 -83.20046875 0.68611328 -82.2734375 0.52441406 C-55.67195194 -4.03668136 -26.528189 -6.07742699 0 0 Z " transform="translate(331,375)" style="fill: #7ADEFA;"/><path d="M0 0 C0.87685455 0.00215515 1.75370911 0.0043103 2.65713501 0.00653076 C15.34405338 0.05651623 27.73881346 0.29920478 40.125 3.3125 C40.96401855 3.51117676 41.80303711 3.70985352 42.66748047 3.91455078 C69.64349921 10.49466864 92.16662939 23.28651709 113.125 41.3125 C114.39308604 42.40251028 115.66131182 43.49235802 116.9296875 44.58203125 C117.76282471 45.30096558 117.76282471 45.30096558 118.61279297 46.03442383 C120.39415712 47.53998426 122.23235524 48.94979577 124.125 50.3125 C123.375 57.0625 123.375 57.0625 121.125 59.3125 C116.4629832 59.12349932 114.34897348 56.99715673 111.125 53.8125 C105.26774843 48.24860992 98.94111512 43.65399778 92.125 39.3125 C91.47756836 38.89967773 90.83013672 38.48685547 90.16308594 38.06152344 C79.91022128 31.60637858 69.49145523 26.49054329 58.125 22.3125 C57.47789062 22.07160645 56.83078125 21.83071289 56.1640625 21.58251953 C40.63209943 15.87293821 24.91576617 13.22472442 8.40234375 13.07421875 C7.06000671 13.05952797 7.06000671 13.05952797 5.69055176 13.04454041 C-13.59876234 12.87679544 -31.96797633 13.1431104 -50.875 17.3125 C-52.96435106 17.73163025 -55.05421527 18.1482089 -57.14453125 18.5625 C-87.9676297 24.85805619 -117.99434742 34.79784921 -147.98535156 44.15942383 C-158.98399174 47.58975255 -169.99186661 50.97543622 -181.05078125 54.20703125 C-182.02508591 54.49213058 -182.99939056 54.77722992 -184.0032196 55.07096863 C-200.79989058 59.94254377 -200.79989058 59.94254377 -204.875 58.3125 C-206.75 56.5625 -206.75 56.5625 -207.875 54.3125 C-207.74014617 51.54799655 -207.37252962 49.94867721 -205.66162109 47.76098633 C-203.33715274 45.87644537 -201.31867102 45.40737499 -198.4140625 44.69921875 C-196.7434375 44.2805957 -196.7434375 44.2805957 -195.0390625 43.85351562 C-193.28722656 43.43102539 -193.28722656 43.43102539 -191.5 43 C-173.26570686 38.51633285 -155.29817668 33.18553272 -137.34246826 27.7036438 C-108.4488895 18.89305889 -79.54625695 10.65654373 -49.9375 4.5625 C-48.52017578 4.26448486 -48.52017578 4.26448486 -47.07421875 3.96044922 C-31.45631568 0.8395429 -15.89427023 -0.07073619 0 0 Z " transform="translate(292.875,530.6875)" style="fill: #7ADEFA;"/><path d="M0 0 C0.87685455 0.00215515 1.75370911 0.0043103 2.65713501 0.00653076 C15.34405338 0.05651623 27.73881346 0.29920478 40.125 3.3125 C40.96401855 3.51117676 41.80303711 3.70985352 42.66748047 3.91455078 C69.64349921 10.49466864 92.16662939 23.28651709 113.125 41.3125 C114.39308604 42.40251028 115.66131182 43.49235802 116.9296875 44.58203125 C117.76282471 45.30096558 117.76282471 45.30096558 118.61279297 46.03442383 C120.39415712 47.53998426 122.23235524 48.94979577 124.125 50.3125 C123.375 57.0625 123.375 57.0625 121.125 59.3125 C116.4629832 59.12349932 114.34897348 56.99715673 111.125 53.8125 C105.26774843 48.24860992 98.94111512 43.65399778 92.125 39.3125 C91.47756836 38.89967773 90.83013672 38.48685547 90.16308594 38.06152344 C79.91022128 31.60637858 69.49145523 26.49054329 58.125 22.3125 C57.47789062 22.07160645 56.83078125 21.83071289 56.1640625 21.58251953 C40.63209943 15.87293821 24.91576617 13.22472442 8.40234375 13.07421875 C7.06000671 13.05952797 7.06000671 13.05952797 5.69055176 13.04454041 C-13.59876234 12.87679544 -31.96797633 13.1431104 -50.875 17.3125 C-52.96435106 17.73163025 -55.05421527 18.1482089 -57.14453125 18.5625 C-87.9676297 24.85805619 -117.99434742 34.79784921 -147.98535156 44.15942383 C-158.98399174 47.58975255 -169.99186661 50.97543622 -181.05078125 54.20703125 C-182.02508591 54.49213058 -182.99939056 54.77722992 -184.0032196 55.07096863 C-200.79989058 59.94254377 -200.79989058 59.94254377 -204.875 58.3125 C-206.75 56.5625 -206.75 56.5625 -207.875 54.3125 C-207.74014617 51.54799655 -207.37252962 49.94867721 -205.66162109 47.76098633 C-203.33715274 45.87644537 -201.31867102 45.40737499 -198.4140625 44.69921875 C-196.7434375 44.2805957 -196.7434375 44.2805957 -195.0390625 43.85351562 C-193.28722656 43.43102539 -193.28722656 43.43102539 -191.5 43 C-173.26570686 38.51633285 -155.29817668 33.18553272 -137.34246826 27.7036438 C-108.4488895 18.89305889 -79.54625695 10.65654373 -49.9375 4.5625 C-48.52017578 4.26448486 -48.52017578 4.26448486 -47.07421875 3.96044922 C-31.45631568 0.8395429 -15.89427023 -0.07073619 0 0 Z " transform="translate(292.875,402.6875)" style="fill: #7ADEFA;"/><path d="M0 0 C0.83901855 0.19867676 1.67803711 0.39735352 2.54248047 0.60205078 C29.51849921 7.18216864 52.04162939 19.97401709 73 38 C74.26808604 39.09001028 75.53631182 40.17985802 76.8046875 41.26953125 C77.63782471 41.98846558 77.63782471 41.98846558 78.48779297 42.72192383 C80.26915712 44.22748426 82.10735524 45.63729577 84 47 C83.25 53.75 83.25 53.75 81 56 C76.3379832 55.81099932 74.22397348 53.68465673 71 50.5 C65.14274843 44.93610992 58.81611512 40.34149778 52 36 C51.35256836 35.58717773 50.70513672 35.17435547 50.03808594 34.74902344 C39.78522128 28.29387858 29.36645523 23.17804329 18 19 C17.35289062 18.75910645 16.70578125 18.51821289 16.0390625 18.27001953 C0.50709943 12.56043821 -15.20923383 9.91222442 -31.72265625 9.76171875 C-33.06499329 9.74702797 -33.06499329 9.74702797 -34.43444824 9.73204041 C-53.72376234 9.56429544 -72.09297633 9.8306104 -91 14 C-93.08935106 14.41913025 -95.17921527 14.8357089 -97.26953125 15.25 C-128.0926297 21.54555619 -158.11934742 31.48534921 -188.11035156 40.84692383 C-199.10899174 44.27725255 -210.11686661 47.66293622 -221.17578125 50.89453125 C-222.15008591 51.17963058 -223.12439056 51.46472992 -224.1282196 51.75846863 C-240.92489058 56.63004377 -240.92489058 56.63004377 -245 55 C-246.875 53.25 -246.875 53.25 -248 51 C-247.86350875 48.20192937 -247.50129596 46.62038517 -245.73388672 44.43310547 C-243.63192011 42.69577176 -242.03387521 42.25577359 -239.3828125 41.6328125 C-238.40650879 41.39385254 -237.43020508 41.15489258 -236.42431641 40.90869141 C-235.33554199 40.65007324 -234.24676758 40.39145508 -233.125 40.125 C-220.20538811 36.9134972 -207.41113033 33.32964991 -194.625 29.625 C-193.65130463 29.34335999 -192.67760925 29.06171997 -191.67440796 28.77154541 C-178.55107934 24.97027164 -165.48764859 21.01403735 -152.45874023 16.90209961 C-143.43609299 14.07733587 -134.3581628 11.67646542 -125.15673828 9.51318359 C-121.80255509 8.7150748 -118.46567709 7.85286711 -115.125 7 C-113.14438741 6.50772929 -111.1626227 6.02047437 -109.18017578 5.53564453 C-107.64362547 5.1581315 -106.108243 4.77584937 -104.57373047 4.39013672 C-71.77919872 -3.80383702 -33.31286664 -8.10431051 0 0 Z " transform="translate(333,278)" style="fill: #7ADEFA;"/><path d="M0 0 C1.30710937 0.17144531 2.61421875 0.34289062 3.9609375 0.51953125 C35.46994722 4.88707983 63.05028304 21.89184749 86.41796875 42.63574219 C87.50158152 43.57019098 88.61021526 44.47617359 89.73828125 45.35644531 C91.21082069 46.50740559 92.6122548 47.74810335 94 49 C94 52.9785232 93.21158314 54.68262528 91 58 C86.5208006 57.13280581 83.97348156 54.55664963 80.6875 51.5625 C74.08112219 45.72712822 67.16697484 40.75420579 59.70507812 36.07568359 C58.21015415 35.13258007 56.73599437 34.15672767 55.265625 33.17578125 C38.76854402 22.70647986 19.10592001 16.49023428 0 13 C-0.67240723 12.87157715 -1.34481445 12.7431543 -2.03759766 12.61083984 C-22.31167806 8.92323682 -45.7688833 9.55141908 -66 13 C-66.98258789 13.15597656 -67.96517578 13.31195313 -68.97753906 13.47265625 C-105.31261845 19.25883816 -140.51115679 30.21593827 -175.41845703 41.64038086 C-189.31049774 46.14319953 -203.3784485 50.05263999 -217.43676758 53.99780273 C-219.87139024 54.68256642 -222.30079497 55.38608693 -224.7253418 56.10571289 C-228.37441877 57.10225125 -231.23785646 57.43409349 -235 57 C-237 55.375 -237 55.375 -238 53 C-238.1875 50 -238.1875 50 -237 47 C-231.20092915 42.97615492 -224.47000607 41.70684845 -217.68359375 40.125 C-206.65255656 37.53025459 -195.76571159 34.40098232 -184.92288017 31.11768341 C-182.85171882 30.49084552 -180.77951784 29.86754855 -178.70704651 29.24505615 C-172.82481515 27.47773686 -166.94406644 25.70552842 -161.06469727 23.92871094 C-107.72063752 7.8150954 -107.72063752 7.8150954 -85.1875 3.6875 C-83.9102002 3.44950684 -82.63290039 3.21151367 -81.31689453 2.96630859 C-54.45701803 -1.91213779 -27.11100066 -4.63663083 0 0 Z " transform="translate(323,471)" style="fill: #7ADEFA;"/><path d="M0 0 C1.30839844 0.17144531 2.61679687 0.34289062 3.96484375 0.51953125 C35.47270275 4.89054214 63.05042956 21.89197756 86.41796875 42.63574219 C87.50158152 43.57019098 88.61021526 44.47617359 89.73828125 45.35644531 C91.21082069 46.50740559 92.6122548 47.74810335 94 49 C94 52.9785232 93.21158314 54.68262528 91 58 C86.5208006 57.13280581 83.97348156 54.55664963 80.6875 51.5625 C74.08112219 45.72712822 67.16697484 40.75420579 59.70507812 36.07568359 C58.21015415 35.13258007 56.73599437 34.15672767 55.265625 33.17578125 C38.76854402 22.70647986 19.10592001 16.49023428 0 13 C-0.67240723 12.87157715 -1.34481445 12.7431543 -2.03759766 12.61083984 C-22.31167806 8.92323682 -45.7688833 9.55141908 -66 13 C-66.98258789 13.15597656 -67.96517578 13.31195313 -68.97753906 13.47265625 C-105.31261845 19.25883816 -140.51115679 30.21593827 -175.41845703 41.64038086 C-189.31049774 46.14319953 -203.3784485 50.05263999 -217.43676758 53.99780273 C-219.87139024 54.68256642 -222.30079497 55.38608693 -224.7253418 56.10571289 C-228.37441877 57.10225125 -231.23785646 57.43409349 -235 57 C-237 55.375 -237 55.375 -238 53 C-238.1875 50 -238.1875 50 -237 47 C-231.82051009 43.40606823 -226.19462853 42.16292212 -220.10617065 40.72569275 C-213.99656289 39.28278763 -207.9499697 37.64932065 -201.90625 35.953125 C-200.8307338 35.65160019 -199.75521759 35.35007538 -198.64710999 35.03941345 C-189.96783665 32.58910262 -181.32138742 30.03335505 -172.68359375 27.44140625 C-172.02428926 27.24377371 -171.36498478 27.04614117 -170.68570137 26.84251976 C-164.58352144 25.01315922 -158.48197202 23.18174047 -152.38452148 21.33666992 C-137.29652261 16.77421023 -122.18754898 12.40983258 -106.89453125 8.58203125 C-105.61734726 8.26142227 -104.34016327 7.94081329 -103.02427673 7.61048889 C-69.59280522 -0.61139768 -34.27019195 -5.80412097 0 0 Z " transform="translate(323,87)" style="fill: #7ADEFA;"/><path d="M0 0 C1.30710937 0.17144531 2.61421875 0.34289062 3.9609375 0.51953125 C35.46994722 4.88707983 63.05028304 21.89184749 86.41796875 42.63574219 C87.50158152 43.57019098 88.61021526 44.47617359 89.73828125 45.35644531 C91.21082069 46.50740559 92.6122548 47.74810335 94 49 C94 52.9785232 93.21158314 54.68262528 91 58 C86.5208006 57.13280581 83.97348156 54.55664963 80.6875 51.5625 C74.08112219 45.72712822 67.16697484 40.75420579 59.70507812 36.07568359 C58.21015415 35.13258007 56.73599437 34.15672767 55.265625 33.17578125 C38.76854402 22.70647986 19.10592001 16.49023428 0 13 C-0.67240723 12.87157715 -1.34481445 12.7431543 -2.03759766 12.61083984 C-22.31167806 8.92323682 -45.7688833 9.55141908 -66 13 C-66.98258789 13.15597656 -67.96517578 13.31195313 -68.97753906 13.47265625 C-105.31261845 19.25883816 -140.51115679 30.21593827 -175.41845703 41.64038086 C-189.31049774 46.14319953 -203.3784485 50.05263999 -217.43676758 53.99780273 C-219.87139024 54.68256642 -222.30079497 55.38608693 -224.7253418 56.10571289 C-228.37441877 57.10225125 -231.23785646 57.43409349 -235 57 C-237 55.375 -237 55.375 -238 53 C-238.1875 50 -238.1875 50 -237 47 C-231.63492817 43.14686353 -225.20815209 41.95325725 -218.875 40.625 C-206.40870326 37.81857672 -194.26466681 34.14353121 -182.0625 30.375 C-53.7155804 -9.18665155 -53.7155804 -9.18665155 0 0 Z " transform="translate(323,215)" style="fill: #7ADEFA;"/><path d="M0 0 C2.92688145 0.83550637 5.86585606 1.61720914 8.80859375 2.39501953 C9.93885986 2.6941626 11.06912598 2.99330566 12.23364258 3.30151367 C14.42799769 3.88054261 16.62308824 4.45679566 18.8190918 5.02954102 C25.20596577 6.72589075 31.46412534 8.66561582 37.72145081 10.79066467 C44.61545868 13.11988722 51.5948177 15.13895992 58.58984375 17.14111328 C59.95156262 17.53313941 61.31321533 17.9253954 62.67480469 18.31787109 C65.36699393 19.09329169 68.05971068 19.86683574 70.75292969 20.63867188 C73.99416583 21.56857664 77.2337991 22.50374663 80.47265625 23.44189453 C89.75653803 26.12296833 99.05517154 28.70419065 108.42871094 31.05615234 C116.01398013 32.99486867 116.01398013 32.99486867 118.46484375 34.70361328 C119.46484375 38.07861328 119.46484375 38.07861328 119.46484375 41.70361328 C117.90234375 44.20361328 117.90234375 44.20361328 115.46484375 45.70361328 C112.87890625 45.42236328 112.87890625 45.42236328 109.46484375 44.70361328 C108.80911377 44.56761719 108.15338379 44.43162109 107.4777832 44.29150391 C93.28585751 41.26848502 79.5108249 37.05438627 65.68972778 32.67245483 C-4.59744251 9.03457914 -4.59744251 9.03457914 -77.53515625 -1.29638672 C-78.25912598 -1.31685059 -78.9830957 -1.33731445 -79.72900391 -1.35839844 C-126.0171661 -2.50353596 -167.74397554 11.94255207 -202.53515625 42.70361328 C-203.29832153 43.53614624 -203.29832153 43.53614624 -204.0769043 44.38549805 C-205.53515625 45.70361328 -205.53515625 45.70361328 -208.09765625 45.57861328 C-210.53515625 44.70361328 -210.53515625 44.70361328 -212.53515625 41.70361328 C-212.90234375 39.21923828 -212.90234375 39.21923828 -212.53515625 36.70361328 C-210.91796875 35.00048828 -210.91796875 35.00048828 -208.66015625 33.45361328 C-205.19699351 30.96228381 -202.06445496 28.39318422 -198.97265625 25.45361328 C-192.36305151 19.4383606 -185.03289265 14.53360194 -177.53515625 9.70361328 C-176.9525 9.32817383 -176.36984375 8.95273437 -175.76953125 8.56591797 C-123.89613016 -24.2488562 -56.02817245 -16.46639025 0 0 Z " transform="translate(758.53515625,288.29638671875)" style="fill: #7ADEFA;"/><path d="M0 0 C2.92688145 0.83550637 5.86585606 1.61720914 8.80859375 2.39501953 C9.93885986 2.6941626 11.06912598 2.99330566 12.23364258 3.30151367 C14.42799769 3.88054261 16.62308824 4.45679566 18.8190918 5.02954102 C25.20596577 6.72589075 31.46412534 8.66561582 37.72145081 10.79066467 C44.61545868 13.11988722 51.5948177 15.13895992 58.58984375 17.14111328 C59.95156262 17.53313941 61.31321533 17.9253954 62.67480469 18.31787109 C65.36699393 19.09329169 68.05971068 19.86683574 70.75292969 20.63867188 C73.99416583 21.56857664 77.2337991 22.50374663 80.47265625 23.44189453 C89.75653803 26.12296833 99.05517154 28.70419065 108.42871094 31.05615234 C116.01398013 32.99486867 116.01398013 32.99486867 118.46484375 34.70361328 C119.46484375 38.07861328 119.46484375 38.07861328 119.46484375 41.70361328 C117.90234375 44.20361328 117.90234375 44.20361328 115.46484375 45.70361328 C112.87890625 45.42236328 112.87890625 45.42236328 109.46484375 44.70361328 C108.80911377 44.56761719 108.15338379 44.43162109 107.4777832 44.29150391 C93.28585751 41.26848502 79.5108249 37.05438627 65.68972778 32.67245483 C-4.59744251 9.03457914 -4.59744251 9.03457914 -77.53515625 -1.29638672 C-78.25912598 -1.31685059 -78.9830957 -1.33731445 -79.72900391 -1.35839844 C-126.0171661 -2.50353596 -167.74397554 11.94255207 -202.53515625 42.70361328 C-203.29832153 43.53614624 -203.29832153 43.53614624 -204.0769043 44.38549805 C-205.53515625 45.70361328 -205.53515625 45.70361328 -208.09765625 45.57861328 C-210.53515625 44.70361328 -210.53515625 44.70361328 -212.53515625 41.70361328 C-212.90234375 39.21923828 -212.90234375 39.21923828 -212.53515625 36.70361328 C-210.91796875 35.00048828 -210.91796875 35.00048828 -208.66015625 33.45361328 C-205.19699351 30.96228381 -202.06445496 28.39318422 -198.97265625 25.45361328 C-192.36305151 19.4383606 -185.03289265 14.53360194 -177.53515625 9.70361328 C-176.9525 9.32817383 -176.36984375 8.95273437 -175.76953125 8.56591797 C-123.89613016 -24.2488562 -56.02817245 -16.46639025 0 0 Z " transform="translate(758.53515625,544.29638671875)" style="fill: #7ADEFA;"/><path d="M0 0 C3.28402814 0.95406268 6.57880176 1.86572851 9.875 2.77685547 C23.04240244 6.42130519 36.15476972 10.1747191 49.1875 14.28076172 C59.51811721 17.53369199 69.88461289 20.60812769 80.3125 23.53076172 C81.32793884 23.81537766 81.32793884 23.81537766 82.3638916 24.10574341 C91.28542526 26.60034499 100.22130898 29.04101823 109.20947266 31.28564453 C116.16915542 33.05407497 116.16915542 33.05407497 118.6875 34.78076172 C119.6875 38.15576172 119.6875 38.15576172 119.6875 41.78076172 C118.125 44.28076172 118.125 44.28076172 115.6875 45.78076172 C113.1015625 45.49951172 113.1015625 45.49951172 109.6875 44.78076172 C109.03177002 44.64476562 108.37604004 44.50876953 107.70043945 44.36865234 C93.50851376 41.34563346 79.73348115 37.13153471 65.91238403 32.74960327 C-4.37478626 9.11172757 -4.37478626 9.11172757 -77.3125 -1.21923828 C-78.03646973 -1.23970215 -78.76043945 -1.26016602 -79.50634766 -1.28125 C-125.79450985 -2.42638752 -167.52131929 12.01970051 -202.3125 42.78076172 C-203.07566528 43.61329468 -203.07566528 43.61329468 -203.85424805 44.46264648 C-205.3125 45.78076172 -205.3125 45.78076172 -207.875 45.65576172 C-210.3125 44.78076172 -210.3125 44.78076172 -212.3125 41.78076172 C-212.6796875 39.29638672 -212.6796875 39.29638672 -212.3125 36.78076172 C-210.6953125 35.07763672 -210.6953125 35.07763672 -208.4375 33.53076172 C-204.97433726 31.03943225 -201.84179871 28.47033265 -198.75 25.53076172 C-192.14039526 19.51550903 -184.8102364 14.61075037 -177.3125 9.78076172 C-176.72984375 9.40532227 -176.1471875 9.02988281 -175.546875 8.64306641 C-123.8362237 -24.06875331 -55.87555452 -16.52906501 0 0 Z " transform="translate(758.3125,160.21923828125)" style="fill: #7ADEFA;"/><path d="M0 0 C0 3.63 0 7.26 0 11 C-1.33804688 11.07476562 -2.67609375 11.14953125 -4.0546875 11.2265625 C-46.32784708 13.96186249 -86.27636672 26.11937239 -126.48147583 38.66703796 C-135.21496763 41.38771514 -143.97063297 44.03364565 -152.73202515 46.66290283 C-154.41475968 47.16801971 -156.0972468 47.6739618 -157.77944946 48.18084717 C-162.41101368 49.57631891 -167.04601122 50.95907107 -171.68756104 52.32098389 C-173.27416943 52.78686977 -174.86003038 53.25530643 -176.44525146 53.72589111 C-178.87086443 54.44315738 -181.29999977 55.1470436 -183.73046875 55.84765625 C-184.82226189 56.17327797 -184.82226189 56.17327797 -185.93611145 56.50547791 C-190.38464286 57.76884389 -194.3286169 58.3548211 -199 58 C-201 56.375 -201 56.375 -202 54 C-202 50.9375 -202 50.9375 -201 48 C-196.81586916 44.81397936 -192.15288197 43.78768874 -187.14453125 42.5390625 C-185.32805854 42.06975587 -183.51165541 41.60017984 -181.6953125 41.13037109 C-180.73786133 40.88567078 -179.78041016 40.64097046 -178.79394531 40.38885498 C-162.22092481 36.14279881 -145.80980282 31.5391342 -129.5 26.375 C-116.02685658 22.11711493 -102.52472399 18.09350059 -88.875 14.4375 C-88.12871338 14.23735291 -87.38242676 14.03720581 -86.61352539 13.83099365 C-82.41761344 12.70926906 -78.21711928 11.60665196 -74.01171875 10.52105713 C-72.01278375 10.00331113 -70.01621178 9.47704659 -68.01953125 8.95068359 C-58.17569737 6.38665011 -48.28147168 4.42475791 -38.25 2.75 C-37.46983521 2.61793152 -36.68967041 2.48586304 -35.88586426 2.34979248 C-23.85903436 0.33711293 -12.21111591 -0.82839229 0 0 Z " transform="translate(287,342)" style="fill: #7ADEFA;"/><path d="M0 0 C0 3.63 0 7.26 0 11 C-1.36088745 11.28496338 -1.36088745 11.28496338 -2.74926758 11.57568359 C-35.28842157 18.4485729 -66.792351 27.60862336 -98.49603271 37.60952759 C-113.99814584 42.49911203 -129.52450401 47.11594497 -145.24902344 51.24023438 C-148.7919862 52.21873101 -152.27376705 53.36410826 -155.75048828 54.55566406 C-158.48022762 55.0948572 -160.34286238 54.7820673 -163 54 C-164.875 52.25 -164.875 52.25 -166 50 C-166.0625 47.5 -166.0625 47.5 -165 45 C-159.84603354 40.46047438 -153.7523248 39.46948732 -147.19287109 37.93847656 C-129.43313993 33.76211072 -112.01624141 28.47002022 -94.57967758 23.1359024 C-71.85744897 16.18813322 -49.15148321 9.39605532 -26 4 C-24.96617187 3.75733398 -23.93234375 3.51466797 -22.8671875 3.26464844 C-20.16485066 2.63860707 -17.45988694 2.02992001 -14.75 1.4375 C-14.03424805 1.28031494 -13.31849609 1.12312988 -12.58105469 0.96118164 C-8.33626079 0.09445738 -4.32597855 -0.12888278 0 0 Z " transform="translate(251,151)" style="fill: #7ADEFA;"/><path d="M0 0 C0 3.96 0 7.92 0 12 C-0.96599121 12.01458252 -1.93198242 12.02916504 -2.92724609 12.04418945 C-28.17052888 12.08249678 -28.17052888 12.08249678 -53 16 C-54.17393311 16.29583984 -54.17393311 16.29583984 -55.37158203 16.59765625 C-82.9476146 23.77225791 -108.80378427 37.38466582 -129 57.69921875 C-131 59 -131 59 -133.625 58.89453125 C-136 58 -136 58 -138 55 C-138.3671875 52.515625 -138.3671875 52.515625 -138 50 C-136.3828125 48.296875 -136.3828125 48.296875 -134.125 46.75 C-130.66183726 44.25867053 -127.52929871 41.68957093 -124.4375 38.75 C-118.36253535 33.20576549 -111.64755595 28.68868621 -104.79052734 24.17919922 C-103.34708456 23.22858173 -101.91568211 22.25969587 -100.48828125 21.28515625 C-86.96538609 12.52076639 -70.63244961 6.68060739 -55 3 C-54.34080566 2.83773926 -53.68161133 2.67547852 -53.00244141 2.50830078 C-35.75671392 -1.54287738 -17.58734713 -0.27880113 0 0 Z " transform="translate(684,403)" style="fill: #79DEF9;"/><path d="M0 0 C0.85658203 0.00451172 1.71316406 0.00902344 2.59570312 0.01367188 C4.66800033 0.02524895 6.74026058 0.04317341 8.8125 0.0625 C8.8125 4.0225 8.8125 7.9825 8.8125 12.0625 C7.05808594 12.14886719 5.30367187 12.23523438 3.49609375 12.32421875 C-39.20296333 14.71190605 -79.55535982 28.44548864 -110.50390625 58.98046875 C-112.1875 60.0625 -112.1875 60.0625 -114.27734375 59.92578125 C-116.1875 59.0625 -116.1875 59.0625 -118.1875 56.0625 C-118.73046875 53.76171875 -118.73046875 53.76171875 -118.1875 51.0625 C-116.22339092 48.68439144 -113.88999658 46.81224044 -111.5 44.875 C-110.81808594 44.30620117 -110.13617187 43.73740234 -109.43359375 43.15136719 C-107.3651707 41.43761333 -105.27902251 39.74794086 -103.1875 38.0625 C-102.61177246 37.59054199 -102.03604492 37.11858398 -101.44287109 36.63232422 C-93.19435851 29.88670805 -84.47992304 24.25005553 -75.1875 19.0625 C-74.21425781 18.51851562 -73.24101563 17.97453125 -72.23828125 17.4140625 C-50.04915646 5.71603019 -25.03709064 -0.2577056 0 0 Z " transform="translate(664.1875,212.9375)" style="fill: #7ADEFA;"/><path d="M0 0 C0 3.63 0 7.26 0 11 C-5.84676423 13.24985574 -11.73153158 15.24341048 -17.7109375 17.109375 C-18.62911758 17.39727905 -19.54729767 17.68518311 -20.49330139 17.98181152 C-23.45284597 18.90785175 -26.41374787 19.82943573 -29.375 20.75 C-30.38055939 21.06336304 -31.38611877 21.37672607 -32.42214966 21.69958496 C-47.13835339 26.27906235 -61.87465211 30.57718539 -76.80493164 34.40576172 C-79.57615975 35.15597518 -82.27877247 36.08734215 -85 37 C-88.1875 37.375 -88.1875 37.375 -91 37 C-93.30461651 34.92584514 -93.8947981 33.52600949 -94.5 30.5 C-94 28 -94 28 -92.05078125 25.98828125 C-88.05906593 23.3867664 -84.31089409 22.63765939 -79.6875 21.6875 C-72.09217643 19.99358365 -64.59140477 18.13304207 -57.125 15.9375 C-55.70356689 15.52008545 -55.70356689 15.52008545 -54.25341797 15.09423828 C-47.47779223 13.08079278 -40.72838962 10.98683184 -33.98046875 8.8828125 C-32.20492477 8.33078029 -30.42937134 7.7787785 -28.65380859 7.22680664 C-25.12912966 6.13073363 -21.60793409 5.02426803 -18.08837891 3.91186523 C-16.45093728 3.40058763 -14.81340853 2.88958891 -13.17578125 2.37890625 C-12.049123 2.0184874 -12.049123 2.0184874 -10.89970398 1.65078735 C-6.9892391 0.44015158 -4.17278689 0 0 0 Z " transform="translate(179,522)" style="fill: #7ADEFA;"/><path d="M0 0 C2.66735273 2.48952921 4.55746343 4.63408134 6 8 C2.5625 7.1875 2.5625 7.1875 -1 6 C-1.33 5.01 -1.66 4.02 -2 3 C-1.34 3 -0.68 3 0 3 C0 2.01 0 1.02 0 0 Z " transform="translate(911,709)" style="fill: #305564;"/></svg>